<svg xmlns="http://www.w3.org/2000/svg" xmlns:xlink="http://www.w3.org/1999/xlink" width="130" height="130" viewBox="0 0 130 130">
  <defs>
    <clipPath id="clip-path">
      <rect id="Rectángulo_468315" data-name="Rectángulo 468315" width="67.311" height="57.421" fill="#12263f"/>
    </clipPath>
  </defs>
  <g id="Grupo_1188417" data-name="Grupo 1188417" transform="translate(-186 -9253.862)">
    <g id="Grupo_1188415" data-name="Grupo 1188415" transform="translate(186 9253.862)">
      <circle id="Elipse_13890" data-name="Elipse 13890" cx="65" cy="65" r="65" transform="translate(130 130) rotate(180)" fill="#7dbfff"/>
      <path id="Intersección_3" data-name="Intersección 3" d="M0,61.621,107.4,0A65.086,65.086,0,0,1,43.784,78.57,64.8,64.8,0,0,1,0,61.621Z" transform="translate(21.185 51.43)" fill="#19538d"/>
      <ellipse id="Elipse_13891" data-name="Elipse 13891" cx="54.541" cy="54.541" rx="54.541" ry="54.541" transform="translate(119.541 119.518) rotate(180)" fill="#d5f4f8"/>
      <path id="Intersección_2" data-name="Intersección 2" d="M0,54.575A54.544,54.544,0,0,1,108.536,46.8L20.977,97.592A54.5,54.5,0,0,1,0,54.575Z" transform="translate(10.46 10.435)" fill="#fff"/>
      <g id="Grupo_1188343" data-name="Grupo 1188343" transform="translate(31.006 30.983)">
        <rect id="Rectángulo_459838" data-name="Rectángulo 459838" width="67.985" height="67.985" transform="translate(-0.295 0)" fill="none"/>
        <g id="Grupo_1217087" data-name="Grupo 1217087" transform="translate(0.379 4.488)">
          <g id="Grupo_1217086" data-name="Grupo 1217086" clip-path="url(#clip-path)">
            <path id="Trazado_1289942" data-name="Trazado 1289942" d="M63.875,57.416l-60.354.005A3.529,3.529,0,0,1,0,53.96V3.472A3.539,3.539,0,0,1,3.52,0L63.612,0a3.563,3.563,0,0,1,3.7,3.476V53.959a3.5,3.5,0,0,1-3.436,3.457m1.76-48.448.007-5.474a1.908,1.908,0,0,0-1.613-1.755H3.282A1.834,1.834,0,0,0,1.684,3.5L1.7,8.97ZM1.673,55.757H65.639v-45.1H1.673Z" transform="translate(0 0)" fill="#12263f"/>
            <path id="Trazado_1289943" data-name="Trazado 1289943" d="M75.85,73.658a9.4,9.4,0,0,1,6.576,15.117A9.349,9.349,0,0,0,80.6,95.423a3.049,3.049,0,0,1,2,1c.578.837.149,1.633.139,2.462-.01.807.447,1.643-.123,2.46a2.641,2.641,0,0,1-1.964.977l-1.49.026a3.239,3.239,0,0,1-3.126,2.372l-2.426-.046a3.146,3.146,0,0,1-2.755-2.356l-1.729,0a2.556,2.556,0,0,1-1.815-1.118,2.466,2.466,0,0,1,.151-2.32,2.3,2.3,0,0,1-.128-2.3,2.451,2.451,0,0,1,2.145-1.117,9.7,9.7,0,0,0-1.805-6.592,9.406,9.406,0,0,1,6.46-15.211l.065-4.364a4.211,4.211,0,0,1,4.222-4.114H96.349a4.169,4.169,0,0,1,4.194,3.985l.068,8.324,2.091-2.022a1.177,1.177,0,0,1,1.051-.031,1.054,1.054,0,0,1,.074,1.2l-3.469,3.5a.952.952,0,0,1-1.216.051L95.62,76.658a1.157,1.157,0,0,1-.033-1.059,1.088,1.088,0,0,1,1.139-.2L98.9,77.476l.014-8.126a2.476,2.476,0,0,0-2.12-2.432H77.97a2.463,2.463,0,0,0-2.115,2.419ZM75.075,88.1l2.558-1.522a1.031,1.031,0,0,1,1.111.26,1.117,1.117,0,0,1-.29,1.222l-2.619,1.508.02,5.926,2.99-.022a11.5,11.5,0,0,1,2.129-7.516A7.779,7.779,0,0,0,80.3,77.389a7.7,7.7,0,0,0-11.487,10.15,11.828,11.828,0,0,1,2.352,7.946l3.007-.006-.009-5.968-2.61-1.479a.991.991,0,0,1-.165-1.32,1.076,1.076,0,0,1,1.14-.071Zm5.816,9.964c.168-.12.514-.454.413-.531l-.46-.352-11.681.008c-.156.085-.543.442-.422.54l.425.339Zm-.044,2.573c.191-.064.57-.513.43-.6l-.465-.278-11.8.006c-.117.084-.365.534-.23.612l.448.259Zm-3.665,1.7-4.432,0c.526.78,1.283.743,2.152.714s1.866.223,2.28-.711" transform="translate(-52.191 -51.831)" fill="#12263f"/>
            <path id="Trazado_1289944" data-name="Trazado 1289944" d="M194.642,175.061c-1.118.18-.115,1.962-.953,3.116l-4.487,0c-.793-1.183.141-2.616-.782-3.074-.846-.419-1.3,1.335-2.714,1.647l-2.943-2.883a1.165,1.165,0,0,1,.112-1.21l1.364-1.317-.275-.8c-.14-.408-1.787.2-2.907-.476l.015-4.683,2.013-.175a3.02,3.02,0,0,0,.864-.141.832.832,0,0,0,.176-.908l-1.239-1.237a1.028,1.028,0,0,1-.023-1.321l2.785-2.7c1.325.024,1.723,1.744,2.628,1.6,1.155-.183.089-1.846.94-3.12h4.474c.837,1.2-.129,2.625.788,3.079s1.411-1.533,2.792-1.562l3.1,3.077c-.06,1.353-1.876,1.833-1.65,2.637.327,1.166,1.778.16,3.133.893l0,4.43c-1.133,1.123-2.933-.4-3.2,1.336l1.494,1.524c.286.292.1,1-.207,1.3l-2.735,2.645c-1.338-.276-1.733-1.819-2.556-1.686m-2.288,1.484.151-2.4,2.8-1.136,1.711,1.575,1.217-1.256-1.553-1.728,1.175-2.824,2.372-.075-.038-1.788-2.376-.163-1.131-2.767,1.551-1.725-1.207-1.248-1.732,1.578-2.789-1.14-.14-2.384-1.8.061-.153,2.329-2.789,1.128L185.9,161l-1.215,1.249,1.561,1.745-1.2,2.838-2.323.086,0,1.783,2.392.111,1.121,2.8-1.547,1.749,1.263,1.18,1.752-1.519,2.708,1.138.19,2.379Z" transform="translate(-143.974 -125.153)" fill="#12263f"/>
            <path id="Trazado_1289945" data-name="Trazado 1289945" d="M74.945,89.7a1.076,1.076,0,0,1-.357,1.074,1.162,1.162,0,0,1-1.091-.235l-1.516-2.632a1.094,1.094,0,0,1,.346-1.061,1.139,1.139,0,0,1,1.171.331Z" transform="translate(-57.204 -69.014)" fill="#12263f"/>
            <path id="Trazado_1289946" data-name="Trazado 1289946" d="M137.58,90.361a1.328,1.328,0,0,1-1.054.418,1.024,1.024,0,0,1-.487-1.075l1.429-2.548a1.011,1.011,0,0,1,1.173-.362,1,1,0,0,1,.315,1.2Z" transform="translate(-108.145 -68.959)" fill="#12263f"/>
            <path id="Trazado_1289947" data-name="Trazado 1289947" d="M158.381,115.6a.929.929,0,0,1-1.2-.3,1.118,1.118,0,0,1,.3-1.14l2.553-1.462a.845.845,0,0,1,.7,1.535Z" transform="translate(-124.942 -89.585)" fill="#12263f"/>
            <path id="Trazado_1289948" data-name="Trazado 1289948" d="M49.782,114.26a1.167,1.167,0,0,1,.254,1.128,1.064,1.064,0,0,1-1.059.328l-2.531-1.441a1.058,1.058,0,0,1-.335-1.151,1.017,1.017,0,0,1,1.175-.32Z" transform="translate(-36.62 -89.64)" fill="#12263f"/>
            <path id="Trazado_1289949" data-name="Trazado 1289949" d="M192.066,23.635l-23.82,0a.971.971,0,0,1-.926-.778c-.028-.3.364-.893.755-.894l23.886,0a1.025,1.025,0,0,1,.842.7c.029.36-.224.724-.737.976" transform="translate(-133.049 -17.46)" fill="#12263f"/>
            <path id="Trazado_1289950" data-name="Trazado 1289950" d="M38.624,22.857a.826.826,0,1,1-.826-.826.827.827,0,0,1,.826.826" transform="translate(-29.399 -17.519)" fill="#12263f"/>
            <path id="Trazado_1289951" data-name="Trazado 1289951" d="M61.188,22.83A.832.832,0,1,1,60.356,22a.832.832,0,0,1,.832.832" transform="translate(-47.332 -17.492)" fill="#12263f"/>
            <path id="Trazado_1289952" data-name="Trazado 1289952" d="M83.832,22.843a.826.826,0,1,1-.826-.826.826.826,0,0,1,.826.826" transform="translate(-65.348 -17.507)" fill="#12263f"/>
            <path id="Trazado_1289953" data-name="Trazado 1289953" d="M88.742,124.353a5.463,5.463,0,0,0-5.823,5.682.917.917,0,0,1-.854.9.961.961,0,0,1-.836-.9,7.143,7.143,0,0,1,7.9-7.317c.278.029.6.618.564.886a1.019,1.019,0,0,1-.953.753" transform="translate(-64.592 -97.547)" fill="#12263f"/>
            <path id="Trazado_1289954" data-name="Trazado 1289954" d="M218.626,190.427a4.579,4.579,0,1,1-4.579-4.579,4.578,4.578,0,0,1,4.579,4.579m-1.677-.007a2.9,2.9,0,1,0-2.9,2.9,2.9,2.9,0,0,0,2.9-2.9" transform="translate(-166.566 -147.783)" fill="#12263f"/>
          </g>
        </g>
      </g>
    </g>
  </g>
</svg>
