<svg xmlns="http://www.w3.org/2000/svg" xmlns:xlink="http://www.w3.org/1999/xlink" width="400" height="798.834" viewBox="0 0 400 798.834">
  <defs>
    <clipPath id="clip-path">
      <rect id="Rectángulo_468323" data-name="Rectángulo 468323" width="83.289" height="74.044" fill="#19538d"/>
    </clipPath>
    <clipPath id="clip-path-2">
      <rect id="Rectángulo_468328" data-name="Rectángulo 468328" width="83.289" height="74.043" fill="#19538d"/>
    </clipPath>
  </defs>
  <g id="Grupo_1217468" data-name="Grupo 1217468" transform="translate(-4289.883 9426.803)">
    <g id="Grupo_1217127" data-name="Grupo 1217127" transform="translate(2177.883 161.197)">
      <path id="Trazado_1288067" data-name="Trazado 1288067" d="M0,0H400V798.834H0Z" transform="translate(2112 -9588)" fill="#dfefff"/>
      <g id="Grupo_1217126" data-name="Grupo 1217126" transform="translate(9.252 -4.125)">
        <path id="Trazado_1291774" data-name="Trazado 1291774" d="M13,0H120a13,13,0,0,1,13,13V129a13,13,0,0,1-13,13H13A13,13,0,0,1,0,129V13A13,13,0,0,1,13,0Z" transform="translate(2368.729 -9422.875) rotate(180)" fill="#ffde92"/>
        <path id="Trazado_1291775" data-name="Trazado 1291775" d="M13,0H120a13,13,0,0,1,13,13V129a13,13,0,0,1-13,13H13A13,13,0,0,1,0,129V13A13,13,0,0,1,13,0Z" transform="translate(2368.729 -9267.164) rotate(180)" fill="#ffde92"/>
        <path id="Trazado_1291776" data-name="Trazado 1291776" d="M13,0H120a13,13,0,0,1,13,13V129a13,13,0,0,1-13,13H13A13,13,0,0,1,0,129V13A13,13,0,0,1,13,0Z" transform="translate(2368.729 -9110.164) rotate(180)" fill="#ffde92"/>
        <path id="Trazado_1291777" data-name="Trazado 1291777" d="M13,0H120a13,13,0,0,1,13,13V129a13,13,0,0,1-13,13H13A13,13,0,0,1,0,129V13A13,13,0,0,1,13,0Z" transform="translate(2368.729 -8958.164) rotate(180)" fill="#ffde92"/>
        <path id="Trazado_1291778" data-name="Trazado 1291778" d="M13,0H120a13,13,0,0,1,13,13V129a13,13,0,0,1-13,13H13A13,13,0,0,1,0,129V13A13,13,0,0,1,13,0Z" transform="translate(2368.729 -8804.164) rotate(180)" fill="#ffde92"/>
        <path id="Trazado_1291779" data-name="Trazado 1291779" d="M-28.992-2.375l2.68-9H-23.7L-27.664,0h-1.719Zm-2.469-9,2.672,9L-28.383,0h-1.734l-3.937-11.375ZM-19.234.156A4.669,4.669,0,0,1-21-.16a3.791,3.791,0,0,1-1.324-.879,3.883,3.883,0,0,1-.832-1.309,4.362,4.362,0,0,1-.289-1.59V-4.25a5.387,5.387,0,0,1,.273-1.758,4.1,4.1,0,0,1,.785-1.383,3.436,3.436,0,0,1,1.246-.9,4.147,4.147,0,0,1,1.656-.316,4.027,4.027,0,0,1,1.594.3,3.158,3.158,0,0,1,1.168.844,3.678,3.678,0,0,1,.715,1.309,5.564,5.564,0,0,1,.242,1.691v.938h-6.719v-1.5h4.508V-5.2a2.015,2.015,0,0,0-.168-.84,1.356,1.356,0,0,0-.5-.59,1.547,1.547,0,0,0-.859-.219,1.443,1.443,0,0,0-.766.2,1.48,1.48,0,0,0-.52.547,2.821,2.821,0,0,0-.3.824,5.121,5.121,0,0,0-.1,1.035v.313A2.924,2.924,0,0,0-21.043-3a2.192,2.192,0,0,0,.414.742,1.843,1.843,0,0,0,.656.484,2.143,2.143,0,0,0,.879.172,2.728,2.728,0,0,0,1.137-.238,2.424,2.424,0,0,0,.91-.723l1.094,1.188a3.362,3.362,0,0,1-.723.734,3.868,3.868,0,0,1-1.1.574A4.438,4.438,0,0,1-19.234.156Zm7-6.766V0h-2.25V-8.453h2.117Zm2.547-1.9-.039,2.086q-.164-.023-.395-.043t-.418-.02a2.511,2.511,0,0,0-.824.121,1.477,1.477,0,0,0-.578.355,1.47,1.47,0,0,0-.344.57,2.7,2.7,0,0,0-.129.766l-.453-.141A6.545,6.545,0,0,1-12.7-6.324a4.1,4.1,0,0,1,.48-1.207,2.351,2.351,0,0,1,.777-.8,1.984,1.984,0,0,1,1.055-.281,2.759,2.759,0,0,1,.383.027A1.539,1.539,0,0,1-9.687-8.508Zm5.633,6.172A.731.731,0,0,0-4.2-2.773a1.259,1.259,0,0,0-.52-.363A5.4,5.4,0,0,0-5.8-3.445,7.991,7.991,0,0,1-7-3.8a3.942,3.942,0,0,1-.953-.52,2.243,2.243,0,0,1-.629-.723A1.976,1.976,0,0,1-8.8-6a2.236,2.236,0,0,1,.23-1,2.55,2.55,0,0,1,.664-.832A3.184,3.184,0,0,1-6.848-8.4,4.523,4.523,0,0,1-5.43-8.609a4.651,4.651,0,0,1,1.895.352,2.839,2.839,0,0,1,1.219.965A2.386,2.386,0,0,1-1.891-5.9h-2.25a1.255,1.255,0,0,0-.137-.59A.982.982,0,0,0-4.7-6.9a1.562,1.562,0,0,0-.738-.152,1.508,1.508,0,0,0-.648.129,1,1,0,0,0-.418.344.829.829,0,0,0-.145.473.722.722,0,0,0,.082.348.8.8,0,0,0,.27.277,2.2,2.2,0,0,0,.488.23,5.375,5.375,0,0,0,.746.191,8.831,8.831,0,0,1,1.633.488,2.888,2.888,0,0,1,1.141.813,2.038,2.038,0,0,1,.422,1.34,2.157,2.157,0,0,1-.25,1.031,2.451,2.451,0,0,1-.719.816,3.533,3.533,0,0,1-1.121.539A5.2,5.2,0,0,1-5.422.156a4.309,4.309,0,0,1-2-.422A3.123,3.123,0,0,1-8.652-1.34,2.454,2.454,0,0,1-9.07-2.68h2.133a1.231,1.231,0,0,0,.238.742,1.252,1.252,0,0,0,.57.406,2.212,2.212,0,0,0,.754.125,1.89,1.89,0,0,0,.727-.121,1.021,1.021,0,0,0,.441-.328A.789.789,0,0,0-4.055-2.336ZM1.969-8.453V0H-.289V-8.453Zm-2.4-2.2a1.062,1.062,0,0,1,.344-.812,1.3,1.3,0,0,1,.922-.32,1.3,1.3,0,0,1,.918.32,1.057,1.057,0,0,1,.348.813,1.057,1.057,0,0,1-.348.813,1.3,1.3,0,0,1-.918.32,1.3,1.3,0,0,1-.922-.32A1.062,1.062,0,0,1-.43-10.656Zm3.9,6.516V-4.3A5.321,5.321,0,0,1,3.734-6.02a3.965,3.965,0,0,1,.773-1.363,3.506,3.506,0,0,1,1.25-.9,4.218,4.218,0,0,1,1.7-.324,4.275,4.275,0,0,1,1.711.324,3.528,3.528,0,0,1,1.262.9,3.931,3.931,0,0,1,.777,1.363A5.321,5.321,0,0,1,11.477-4.3v.164a5.3,5.3,0,0,1-.266,1.707,3.973,3.973,0,0,1-.777,1.367,3.481,3.481,0,0,1-1.254.9,4.263,4.263,0,0,1-1.7.32A4.292,4.292,0,0,1,5.77-.164a3.474,3.474,0,0,1-1.258-.9,3.973,3.973,0,0,1-.777-1.367A5.3,5.3,0,0,1,3.469-4.141ZM5.719-4.3v.164a4.977,4.977,0,0,0,.094.992,2.569,2.569,0,0,0,.3.809,1.507,1.507,0,0,0,.543.543,1.607,1.607,0,0,0,.82.2,1.574,1.574,0,0,0,.8-.2A1.477,1.477,0,0,0,8.82-2.34a2.7,2.7,0,0,0,.3-.809,4.784,4.784,0,0,0,.1-.992V-4.3a4.648,4.648,0,0,0-.1-.973,2.741,2.741,0,0,0-.3-.812,1.552,1.552,0,0,0-.543-.559,1.542,1.542,0,0,0-.812-.2,1.521,1.521,0,0,0-.809.2,1.564,1.564,0,0,0-.539.559,2.667,2.667,0,0,0-.3.813A4.835,4.835,0,0,0,5.719-4.3Zm.664-5.289L7.914-12h2.445L8.211-9.594Zm8.68,2.945V0h-2.25V-8.453h2.109Zm-.328,2.125h-.609a5.516,5.516,0,0,1,.242-1.691,3.894,3.894,0,0,1,.68-1.289,2.968,2.968,0,0,1,1.043-.82,3.142,3.142,0,0,1,1.355-.285,3.275,3.275,0,0,1,1.086.172,2.109,2.109,0,0,1,.848.547,2.487,2.487,0,0,1,.547.992,5.144,5.144,0,0,1,.191,1.508V0H17.852V-5.4a1.993,1.993,0,0,0-.156-.875.9.9,0,0,0-.457-.441,1.875,1.875,0,0,0-.738-.129,1.626,1.626,0,0,0-.785.18,1.537,1.537,0,0,0-.547.5,2.354,2.354,0,0,0-.324.738A3.6,3.6,0,0,0,14.734-4.523ZM31.2-11.4V0h-2.25V-8.8l-2.7.859V-9.719l4.711-1.68Z" transform="translate(2301.729 -9444.762)" fill="#12263f"/>
        <path id="Trazado_1291780" data-name="Trazado 1291780" d="M-28.992-2.375l2.68-9H-23.7L-27.664,0h-1.719Zm-2.469-9,2.672,9L-28.383,0h-1.734l-3.937-11.375ZM-19.234.156A4.669,4.669,0,0,1-21-.16a3.791,3.791,0,0,1-1.324-.879,3.883,3.883,0,0,1-.832-1.309,4.362,4.362,0,0,1-.289-1.59V-4.25a5.387,5.387,0,0,1,.273-1.758,4.1,4.1,0,0,1,.785-1.383,3.436,3.436,0,0,1,1.246-.9,4.147,4.147,0,0,1,1.656-.316,4.027,4.027,0,0,1,1.594.3,3.158,3.158,0,0,1,1.168.844,3.678,3.678,0,0,1,.715,1.309,5.564,5.564,0,0,1,.242,1.691v.938h-6.719v-1.5h4.508V-5.2a2.015,2.015,0,0,0-.168-.84,1.356,1.356,0,0,0-.5-.59,1.547,1.547,0,0,0-.859-.219,1.443,1.443,0,0,0-.766.2,1.48,1.48,0,0,0-.52.547,2.821,2.821,0,0,0-.3.824,5.121,5.121,0,0,0-.1,1.035v.313A2.924,2.924,0,0,0-21.043-3a2.192,2.192,0,0,0,.414.742,1.843,1.843,0,0,0,.656.484,2.143,2.143,0,0,0,.879.172,2.728,2.728,0,0,0,1.137-.238,2.424,2.424,0,0,0,.91-.723l1.094,1.188a3.362,3.362,0,0,1-.723.734,3.868,3.868,0,0,1-1.1.574A4.438,4.438,0,0,1-19.234.156Zm7-6.766V0h-2.25V-8.453h2.117Zm2.547-1.9-.039,2.086q-.164-.023-.395-.043t-.418-.02a2.511,2.511,0,0,0-.824.121,1.477,1.477,0,0,0-.578.355,1.47,1.47,0,0,0-.344.57,2.7,2.7,0,0,0-.129.766l-.453-.141A6.545,6.545,0,0,1-12.7-6.324a4.1,4.1,0,0,1,.48-1.207,2.351,2.351,0,0,1,.777-.8,1.984,1.984,0,0,1,1.055-.281,2.759,2.759,0,0,1,.383.027A1.539,1.539,0,0,1-9.687-8.508Zm5.633,6.172A.731.731,0,0,0-4.2-2.773a1.259,1.259,0,0,0-.52-.363A5.4,5.4,0,0,0-5.8-3.445,7.991,7.991,0,0,1-7-3.8a3.942,3.942,0,0,1-.953-.52,2.243,2.243,0,0,1-.629-.723A1.976,1.976,0,0,1-8.8-6a2.236,2.236,0,0,1,.23-1,2.55,2.55,0,0,1,.664-.832A3.184,3.184,0,0,1-6.848-8.4,4.523,4.523,0,0,1-5.43-8.609a4.651,4.651,0,0,1,1.895.352,2.839,2.839,0,0,1,1.219.965A2.386,2.386,0,0,1-1.891-5.9h-2.25a1.255,1.255,0,0,0-.137-.59A.982.982,0,0,0-4.7-6.9a1.562,1.562,0,0,0-.738-.152,1.508,1.508,0,0,0-.648.129,1,1,0,0,0-.418.344.829.829,0,0,0-.145.473.722.722,0,0,0,.082.348.8.8,0,0,0,.27.277,2.2,2.2,0,0,0,.488.23,5.375,5.375,0,0,0,.746.191,8.831,8.831,0,0,1,1.633.488,2.888,2.888,0,0,1,1.141.813,2.038,2.038,0,0,1,.422,1.34,2.157,2.157,0,0,1-.25,1.031,2.451,2.451,0,0,1-.719.816,3.533,3.533,0,0,1-1.121.539A5.2,5.2,0,0,1-5.422.156a4.309,4.309,0,0,1-2-.422A3.123,3.123,0,0,1-8.652-1.34,2.454,2.454,0,0,1-9.07-2.68h2.133a1.231,1.231,0,0,0,.238.742,1.252,1.252,0,0,0,.57.406,2.212,2.212,0,0,0,.754.125,1.89,1.89,0,0,0,.727-.121,1.021,1.021,0,0,0,.441-.328A.789.789,0,0,0-4.055-2.336ZM1.969-8.453V0H-.289V-8.453Zm-2.4-2.2a1.062,1.062,0,0,1,.344-.812,1.3,1.3,0,0,1,.922-.32,1.3,1.3,0,0,1,.918.32,1.057,1.057,0,0,1,.348.813,1.057,1.057,0,0,1-.348.813,1.3,1.3,0,0,1-.918.32,1.3,1.3,0,0,1-.922-.32A1.062,1.062,0,0,1-.43-10.656Zm3.9,6.516V-4.3A5.321,5.321,0,0,1,3.734-6.02a3.965,3.965,0,0,1,.773-1.363,3.506,3.506,0,0,1,1.25-.9,4.218,4.218,0,0,1,1.7-.324,4.275,4.275,0,0,1,1.711.324,3.528,3.528,0,0,1,1.262.9,3.931,3.931,0,0,1,.777,1.363A5.321,5.321,0,0,1,11.477-4.3v.164a5.3,5.3,0,0,1-.266,1.707,3.973,3.973,0,0,1-.777,1.367,3.481,3.481,0,0,1-1.254.9,4.263,4.263,0,0,1-1.7.32A4.292,4.292,0,0,1,5.77-.164a3.474,3.474,0,0,1-1.258-.9,3.973,3.973,0,0,1-.777-1.367A5.3,5.3,0,0,1,3.469-4.141ZM5.719-4.3v.164a4.977,4.977,0,0,0,.094.992,2.569,2.569,0,0,0,.3.809,1.507,1.507,0,0,0,.543.543,1.607,1.607,0,0,0,.82.2,1.574,1.574,0,0,0,.8-.2A1.477,1.477,0,0,0,8.82-2.34a2.7,2.7,0,0,0,.3-.809,4.784,4.784,0,0,0,.1-.992V-4.3a4.648,4.648,0,0,0-.1-.973,2.741,2.741,0,0,0-.3-.812,1.552,1.552,0,0,0-.543-.559,1.542,1.542,0,0,0-.812-.2,1.521,1.521,0,0,0-.809.2,1.564,1.564,0,0,0-.539.559,2.667,2.667,0,0,0-.3.813A4.835,4.835,0,0,0,5.719-4.3Zm.664-5.289L7.914-12h2.445L8.211-9.594Zm8.68,2.945V0h-2.25V-8.453h2.109Zm-.328,2.125h-.609a5.516,5.516,0,0,1,.242-1.691,3.894,3.894,0,0,1,.68-1.289,2.968,2.968,0,0,1,1.043-.82,3.142,3.142,0,0,1,1.355-.285,3.275,3.275,0,0,1,1.086.172,2.109,2.109,0,0,1,.848.547,2.487,2.487,0,0,1,.547.992,5.144,5.144,0,0,1,.191,1.508V0H17.852V-5.4a1.993,1.993,0,0,0-.156-.875.9.9,0,0,0-.457-.441,1.875,1.875,0,0,0-.738-.129,1.626,1.626,0,0,0-.785.18,1.537,1.537,0,0,0-.547.5,2.354,2.354,0,0,0-.324.738A3.6,3.6,0,0,0,14.734-4.523ZM33.492-1.758V0H25.711V-1.5l3.68-3.945a10.505,10.505,0,0,0,.875-1.09,4.285,4.285,0,0,0,.465-.852,2.027,2.027,0,0,0,.145-.723A2.1,2.1,0,0,0,30.7-9a1.291,1.291,0,0,0-.5-.574,1.537,1.537,0,0,0-.816-.2,1.549,1.549,0,0,0-.887.25,1.555,1.555,0,0,0-.562.7,2.529,2.529,0,0,0-.191,1.008H25.484a3.69,3.69,0,0,1,.484-1.863,3.588,3.588,0,0,1,1.367-1.352,4.154,4.154,0,0,1,2.094-.5,4.735,4.735,0,0,1,2.02.387,2.771,2.771,0,0,1,1.25,1.109,3.334,3.334,0,0,1,.426,1.723,3.426,3.426,0,0,1-.18,1.1,4.959,4.959,0,0,1-.512,1.063,8.7,8.7,0,0,1-.8,1.066q-.469.539-1.039,1.117L28.617-1.758Z" transform="translate(2302.729 -9289.051)" fill="#12263f"/>
        <path id="Trazado_1291781" data-name="Trazado 1291781" d="M-28.992-2.375l2.68-9H-23.7L-27.664,0h-1.719Zm-2.469-9,2.672,9L-28.383,0h-1.734l-3.937-11.375ZM-19.234.156A4.669,4.669,0,0,1-21-.16a3.791,3.791,0,0,1-1.324-.879,3.883,3.883,0,0,1-.832-1.309,4.362,4.362,0,0,1-.289-1.59V-4.25a5.387,5.387,0,0,1,.273-1.758,4.1,4.1,0,0,1,.785-1.383,3.436,3.436,0,0,1,1.246-.9,4.147,4.147,0,0,1,1.656-.316,4.027,4.027,0,0,1,1.594.3,3.158,3.158,0,0,1,1.168.844,3.678,3.678,0,0,1,.715,1.309,5.564,5.564,0,0,1,.242,1.691v.938h-6.719v-1.5h4.508V-5.2a2.015,2.015,0,0,0-.168-.84,1.356,1.356,0,0,0-.5-.59,1.547,1.547,0,0,0-.859-.219,1.443,1.443,0,0,0-.766.2,1.48,1.48,0,0,0-.52.547,2.821,2.821,0,0,0-.3.824,5.121,5.121,0,0,0-.1,1.035v.313A2.924,2.924,0,0,0-21.043-3a2.192,2.192,0,0,0,.414.742,1.843,1.843,0,0,0,.656.484,2.143,2.143,0,0,0,.879.172,2.728,2.728,0,0,0,1.137-.238,2.424,2.424,0,0,0,.91-.723l1.094,1.188a3.362,3.362,0,0,1-.723.734,3.868,3.868,0,0,1-1.1.574A4.438,4.438,0,0,1-19.234.156Zm7-6.766V0h-2.25V-8.453h2.117Zm2.547-1.9-.039,2.086q-.164-.023-.395-.043t-.418-.02a2.511,2.511,0,0,0-.824.121,1.477,1.477,0,0,0-.578.355,1.47,1.47,0,0,0-.344.57,2.7,2.7,0,0,0-.129.766l-.453-.141A6.545,6.545,0,0,1-12.7-6.324a4.1,4.1,0,0,1,.48-1.207,2.351,2.351,0,0,1,.777-.8,1.984,1.984,0,0,1,1.055-.281,2.759,2.759,0,0,1,.383.027A1.539,1.539,0,0,1-9.687-8.508Zm5.633,6.172A.731.731,0,0,0-4.2-2.773a1.259,1.259,0,0,0-.52-.363A5.4,5.4,0,0,0-5.8-3.445,7.991,7.991,0,0,1-7-3.8a3.942,3.942,0,0,1-.953-.52,2.243,2.243,0,0,1-.629-.723A1.976,1.976,0,0,1-8.8-6a2.236,2.236,0,0,1,.23-1,2.55,2.55,0,0,1,.664-.832A3.184,3.184,0,0,1-6.848-8.4,4.523,4.523,0,0,1-5.43-8.609a4.651,4.651,0,0,1,1.895.352,2.839,2.839,0,0,1,1.219.965A2.386,2.386,0,0,1-1.891-5.9h-2.25a1.255,1.255,0,0,0-.137-.59A.982.982,0,0,0-4.7-6.9a1.562,1.562,0,0,0-.738-.152,1.508,1.508,0,0,0-.648.129,1,1,0,0,0-.418.344.829.829,0,0,0-.145.473.722.722,0,0,0,.082.348.8.8,0,0,0,.27.277,2.2,2.2,0,0,0,.488.23,5.375,5.375,0,0,0,.746.191,8.831,8.831,0,0,1,1.633.488,2.888,2.888,0,0,1,1.141.813,2.038,2.038,0,0,1,.422,1.34,2.157,2.157,0,0,1-.25,1.031,2.451,2.451,0,0,1-.719.816,3.533,3.533,0,0,1-1.121.539A5.2,5.2,0,0,1-5.422.156a4.309,4.309,0,0,1-2-.422A3.123,3.123,0,0,1-8.652-1.34,2.454,2.454,0,0,1-9.07-2.68h2.133a1.231,1.231,0,0,0,.238.742,1.252,1.252,0,0,0,.57.406,2.212,2.212,0,0,0,.754.125,1.89,1.89,0,0,0,.727-.121,1.021,1.021,0,0,0,.441-.328A.789.789,0,0,0-4.055-2.336ZM1.969-8.453V0H-.289V-8.453Zm-2.4-2.2a1.062,1.062,0,0,1,.344-.812,1.3,1.3,0,0,1,.922-.32,1.3,1.3,0,0,1,.918.32,1.057,1.057,0,0,1,.348.813,1.057,1.057,0,0,1-.348.813,1.3,1.3,0,0,1-.918.32,1.3,1.3,0,0,1-.922-.32A1.062,1.062,0,0,1-.43-10.656Zm3.9,6.516V-4.3A5.321,5.321,0,0,1,3.734-6.02a3.965,3.965,0,0,1,.773-1.363,3.506,3.506,0,0,1,1.25-.9,4.218,4.218,0,0,1,1.7-.324,4.275,4.275,0,0,1,1.711.324,3.528,3.528,0,0,1,1.262.9,3.931,3.931,0,0,1,.777,1.363A5.321,5.321,0,0,1,11.477-4.3v.164a5.3,5.3,0,0,1-.266,1.707,3.973,3.973,0,0,1-.777,1.367,3.481,3.481,0,0,1-1.254.9,4.263,4.263,0,0,1-1.7.32A4.292,4.292,0,0,1,5.77-.164a3.474,3.474,0,0,1-1.258-.9,3.973,3.973,0,0,1-.777-1.367A5.3,5.3,0,0,1,3.469-4.141ZM5.719-4.3v.164a4.977,4.977,0,0,0,.094.992,2.569,2.569,0,0,0,.3.809,1.507,1.507,0,0,0,.543.543,1.607,1.607,0,0,0,.82.2,1.574,1.574,0,0,0,.8-.2A1.477,1.477,0,0,0,8.82-2.34a2.7,2.7,0,0,0,.3-.809,4.784,4.784,0,0,0,.1-.992V-4.3a4.648,4.648,0,0,0-.1-.973,2.741,2.741,0,0,0-.3-.812,1.552,1.552,0,0,0-.543-.559,1.542,1.542,0,0,0-.812-.2,1.521,1.521,0,0,0-.809.2,1.564,1.564,0,0,0-.539.559,2.667,2.667,0,0,0-.3.813A4.835,4.835,0,0,0,5.719-4.3Zm.664-5.289L7.914-12h2.445L8.211-9.594Zm8.68,2.945V0h-2.25V-8.453h2.109Zm-.328,2.125h-.609a5.516,5.516,0,0,1,.242-1.691,3.894,3.894,0,0,1,.68-1.289,2.968,2.968,0,0,1,1.043-.82,3.142,3.142,0,0,1,1.355-.285,3.275,3.275,0,0,1,1.086.172,2.109,2.109,0,0,1,.848.547,2.487,2.487,0,0,1,.547.992,5.144,5.144,0,0,1,.191,1.508V0H17.852V-5.4a1.993,1.993,0,0,0-.156-.875.9.9,0,0,0-.457-.441,1.875,1.875,0,0,0-.738-.129,1.626,1.626,0,0,0-.785.18,1.537,1.537,0,0,0-.547.5,2.354,2.354,0,0,0-.324.738A3.6,3.6,0,0,0,14.734-4.523ZM28.016-6.664h1.2a2.021,2.021,0,0,0,.953-.2,1.281,1.281,0,0,0,.559-.562,1.856,1.856,0,0,0,.184-.848,1.732,1.732,0,0,0-.168-.777,1.214,1.214,0,0,0-.512-.531,1.766,1.766,0,0,0-.867-.191,1.788,1.788,0,0,0-.766.164,1.4,1.4,0,0,0-.562.461,1.209,1.209,0,0,0-.211.719H25.57a2.708,2.708,0,0,1,.5-1.633,3.369,3.369,0,0,1,1.355-1.086,4.443,4.443,0,0,1,1.875-.391,5.111,5.111,0,0,1,2.023.371,3.012,3.012,0,0,1,1.352,1.09A3.116,3.116,0,0,1,33.164-8.3a2.32,2.32,0,0,1-.25,1.043,2.9,2.9,0,0,1-.715.906,3.521,3.521,0,0,1-1.129.641,4.4,4.4,0,0,1-1.492.238H28.016Zm0,1.711V-6.117h1.563a5.7,5.7,0,0,1,1.633.211,3.322,3.322,0,0,1,1.18.605,2.577,2.577,0,0,1,.719.93,2.838,2.838,0,0,1,.242,1.184,3.179,3.179,0,0,1-.3,1.418,2.984,2.984,0,0,1-.855,1.051,3.911,3.911,0,0,1-1.285.652,5.5,5.5,0,0,1-1.6.223,5.068,5.068,0,0,1-1.41-.2,4.028,4.028,0,0,1-1.25-.6,2.987,2.987,0,0,1-.891-1.016,3.018,3.018,0,0,1-.332-1.457H27.68a1.424,1.424,0,0,0,.219.781A1.5,1.5,0,0,0,28.5-1.8a1.888,1.888,0,0,0,.863.2,2,2,0,0,0,.926-.2,1.408,1.408,0,0,0,.594-.562,1.683,1.683,0,0,0,.207-.848,1.943,1.943,0,0,0-.227-1,1.35,1.35,0,0,0-.648-.559,2.541,2.541,0,0,0-1-.18Z" transform="translate(2301.729 -9132.051)" fill="#12263f"/>
        <path id="Trazado_1291782" data-name="Trazado 1291782" d="M-28.992-2.375l2.68-9H-23.7L-27.664,0h-1.719Zm-2.469-9,2.672,9L-28.383,0h-1.734l-3.937-11.375ZM-19.234.156A4.669,4.669,0,0,1-21-.16a3.791,3.791,0,0,1-1.324-.879,3.883,3.883,0,0,1-.832-1.309,4.362,4.362,0,0,1-.289-1.59V-4.25a5.387,5.387,0,0,1,.273-1.758,4.1,4.1,0,0,1,.785-1.383,3.436,3.436,0,0,1,1.246-.9,4.147,4.147,0,0,1,1.656-.316,4.027,4.027,0,0,1,1.594.3,3.158,3.158,0,0,1,1.168.844,3.678,3.678,0,0,1,.715,1.309,5.564,5.564,0,0,1,.242,1.691v.938h-6.719v-1.5h4.508V-5.2a2.015,2.015,0,0,0-.168-.84,1.356,1.356,0,0,0-.5-.59,1.547,1.547,0,0,0-.859-.219,1.443,1.443,0,0,0-.766.2,1.48,1.48,0,0,0-.52.547,2.821,2.821,0,0,0-.3.824,5.121,5.121,0,0,0-.1,1.035v.313A2.924,2.924,0,0,0-21.043-3a2.192,2.192,0,0,0,.414.742,1.843,1.843,0,0,0,.656.484,2.143,2.143,0,0,0,.879.172,2.728,2.728,0,0,0,1.137-.238,2.424,2.424,0,0,0,.91-.723l1.094,1.188a3.362,3.362,0,0,1-.723.734,3.868,3.868,0,0,1-1.1.574A4.438,4.438,0,0,1-19.234.156Zm7-6.766V0h-2.25V-8.453h2.117Zm2.547-1.9-.039,2.086q-.164-.023-.395-.043t-.418-.02a2.511,2.511,0,0,0-.824.121,1.477,1.477,0,0,0-.578.355,1.47,1.47,0,0,0-.344.57,2.7,2.7,0,0,0-.129.766l-.453-.141A6.545,6.545,0,0,1-12.7-6.324a4.1,4.1,0,0,1,.48-1.207,2.351,2.351,0,0,1,.777-.8,1.984,1.984,0,0,1,1.055-.281,2.759,2.759,0,0,1,.383.027A1.539,1.539,0,0,1-9.687-8.508Zm5.633,6.172A.731.731,0,0,0-4.2-2.773a1.259,1.259,0,0,0-.52-.363A5.4,5.4,0,0,0-5.8-3.445,7.991,7.991,0,0,1-7-3.8a3.942,3.942,0,0,1-.953-.52,2.243,2.243,0,0,1-.629-.723A1.976,1.976,0,0,1-8.8-6a2.236,2.236,0,0,1,.23-1,2.55,2.55,0,0,1,.664-.832A3.184,3.184,0,0,1-6.848-8.4,4.523,4.523,0,0,1-5.43-8.609a4.651,4.651,0,0,1,1.895.352,2.839,2.839,0,0,1,1.219.965A2.386,2.386,0,0,1-1.891-5.9h-2.25a1.255,1.255,0,0,0-.137-.59A.982.982,0,0,0-4.7-6.9a1.562,1.562,0,0,0-.738-.152,1.508,1.508,0,0,0-.648.129,1,1,0,0,0-.418.344.829.829,0,0,0-.145.473.722.722,0,0,0,.082.348.8.8,0,0,0,.27.277,2.2,2.2,0,0,0,.488.23,5.375,5.375,0,0,0,.746.191,8.831,8.831,0,0,1,1.633.488,2.888,2.888,0,0,1,1.141.813,2.038,2.038,0,0,1,.422,1.34,2.157,2.157,0,0,1-.25,1.031,2.451,2.451,0,0,1-.719.816,3.533,3.533,0,0,1-1.121.539A5.2,5.2,0,0,1-5.422.156a4.309,4.309,0,0,1-2-.422A3.123,3.123,0,0,1-8.652-1.34,2.454,2.454,0,0,1-9.07-2.68h2.133a1.231,1.231,0,0,0,.238.742,1.252,1.252,0,0,0,.57.406,2.212,2.212,0,0,0,.754.125,1.89,1.89,0,0,0,.727-.121,1.021,1.021,0,0,0,.441-.328A.789.789,0,0,0-4.055-2.336ZM1.969-8.453V0H-.289V-8.453Zm-2.4-2.2a1.062,1.062,0,0,1,.344-.812,1.3,1.3,0,0,1,.922-.32,1.3,1.3,0,0,1,.918.32,1.057,1.057,0,0,1,.348.813,1.057,1.057,0,0,1-.348.813,1.3,1.3,0,0,1-.918.32,1.3,1.3,0,0,1-.922-.32A1.062,1.062,0,0,1-.43-10.656Zm3.9,6.516V-4.3A5.321,5.321,0,0,1,3.734-6.02a3.965,3.965,0,0,1,.773-1.363,3.506,3.506,0,0,1,1.25-.9,4.218,4.218,0,0,1,1.7-.324,4.275,4.275,0,0,1,1.711.324,3.528,3.528,0,0,1,1.262.9,3.931,3.931,0,0,1,.777,1.363A5.321,5.321,0,0,1,11.477-4.3v.164a5.3,5.3,0,0,1-.266,1.707,3.973,3.973,0,0,1-.777,1.367,3.481,3.481,0,0,1-1.254.9,4.263,4.263,0,0,1-1.7.32A4.292,4.292,0,0,1,5.77-.164a3.474,3.474,0,0,1-1.258-.9,3.973,3.973,0,0,1-.777-1.367A5.3,5.3,0,0,1,3.469-4.141ZM5.719-4.3v.164a4.977,4.977,0,0,0,.094.992,2.569,2.569,0,0,0,.3.809,1.507,1.507,0,0,0,.543.543,1.607,1.607,0,0,0,.82.2,1.574,1.574,0,0,0,.8-.2A1.477,1.477,0,0,0,8.82-2.34a2.7,2.7,0,0,0,.3-.809,4.784,4.784,0,0,0,.1-.992V-4.3a4.648,4.648,0,0,0-.1-.973,2.741,2.741,0,0,0-.3-.812,1.552,1.552,0,0,0-.543-.559,1.542,1.542,0,0,0-.812-.2,1.521,1.521,0,0,0-.809.2,1.564,1.564,0,0,0-.539.559,2.667,2.667,0,0,0-.3.813A4.835,4.835,0,0,0,5.719-4.3Zm.664-5.289L7.914-12h2.445L8.211-9.594Zm8.68,2.945V0h-2.25V-8.453h2.109Zm-.328,2.125h-.609a5.516,5.516,0,0,1,.242-1.691,3.894,3.894,0,0,1,.68-1.289,2.968,2.968,0,0,1,1.043-.82,3.142,3.142,0,0,1,1.355-.285,3.275,3.275,0,0,1,1.086.172,2.109,2.109,0,0,1,.848.547,2.487,2.487,0,0,1,.547.992,5.144,5.144,0,0,1,.191,1.508V0H17.852V-5.4a1.993,1.993,0,0,0-.156-.875.9.9,0,0,0-.457-.441,1.875,1.875,0,0,0-.738-.129,1.626,1.626,0,0,0-.785.18,1.537,1.537,0,0,0-.547.5,2.354,2.354,0,0,0-.324.738A3.6,3.6,0,0,0,14.734-4.523ZM33.68-4.25v1.766h-8.2l-.109-1.367,4.742-7.523h1.789L29.969-8.133,27.609-4.25Zm-1.289-7.125V0h-2.25V-11.375Z" transform="translate(2301.729 -8980.051)" fill="#12263f"/>
        <path id="Trazado_1291783" data-name="Trazado 1291783" d="M-46.437-2.375l2.68-9h2.609L-45.109,0h-1.719Zm-2.469-9,2.672,9L-45.828,0h-1.734L-51.5-11.375ZM-36.68.156A4.669,4.669,0,0,1-38.445-.16a3.791,3.791,0,0,1-1.324-.879A3.883,3.883,0,0,1-40.6-2.348a4.362,4.362,0,0,1-.289-1.59V-4.25a5.387,5.387,0,0,1,.273-1.758,4.1,4.1,0,0,1,.785-1.383,3.436,3.436,0,0,1,1.246-.9,4.147,4.147,0,0,1,1.656-.316,4.027,4.027,0,0,1,1.594.3,3.158,3.158,0,0,1,1.168.844,3.678,3.678,0,0,1,.715,1.309,5.564,5.564,0,0,1,.242,1.691v.938H-39.93v-1.5h4.508V-5.2a2.015,2.015,0,0,0-.168-.84,1.356,1.356,0,0,0-.5-.59,1.547,1.547,0,0,0-.859-.219,1.443,1.443,0,0,0-.766.2,1.48,1.48,0,0,0-.52.547,2.821,2.821,0,0,0-.3.824,5.121,5.121,0,0,0-.1,1.035v.313A2.924,2.924,0,0,0-38.488-3a2.192,2.192,0,0,0,.414.742,1.843,1.843,0,0,0,.656.484,2.143,2.143,0,0,0,.879.172A2.728,2.728,0,0,0-35.4-1.84a2.424,2.424,0,0,0,.91-.723L-33.4-1.375a3.362,3.362,0,0,1-.723.734,3.868,3.868,0,0,1-1.1.574A4.438,4.438,0,0,1-36.68.156Zm7-6.766V0h-2.25V-8.453h2.117Zm2.547-1.9-.039,2.086q-.164-.023-.395-.043t-.418-.02a2.511,2.511,0,0,0-.824.121,1.477,1.477,0,0,0-.578.355,1.47,1.47,0,0,0-.344.57,2.7,2.7,0,0,0-.129.766l-.453-.141a6.545,6.545,0,0,1,.164-1.512,4.1,4.1,0,0,1,.48-1.207,2.351,2.351,0,0,1,.777-.8,1.984,1.984,0,0,1,1.055-.281,2.759,2.759,0,0,1,.383.027A1.539,1.539,0,0,1-27.133-8.508ZM-21.5-2.336a.731.731,0,0,0-.141-.437,1.259,1.259,0,0,0-.52-.363,5.4,5.4,0,0,0-1.09-.309A7.991,7.991,0,0,1-24.441-3.8a3.942,3.942,0,0,1-.953-.52,2.243,2.243,0,0,1-.629-.723A1.976,1.976,0,0,1-26.25-6a2.236,2.236,0,0,1,.23-1,2.55,2.55,0,0,1,.664-.832,3.184,3.184,0,0,1,1.063-.57,4.523,4.523,0,0,1,1.418-.207,4.651,4.651,0,0,1,1.895.352,2.839,2.839,0,0,1,1.219.965A2.386,2.386,0,0,1-19.336-5.9h-2.25a1.255,1.255,0,0,0-.137-.59.982.982,0,0,0-.422-.414,1.562,1.562,0,0,0-.738-.152,1.508,1.508,0,0,0-.648.129,1,1,0,0,0-.418.344.829.829,0,0,0-.145.473.722.722,0,0,0,.082.348.8.8,0,0,0,.27.277,2.2,2.2,0,0,0,.488.23,5.375,5.375,0,0,0,.746.191,8.831,8.831,0,0,1,1.633.488,2.888,2.888,0,0,1,1.141.813,2.038,2.038,0,0,1,.422,1.34,2.157,2.157,0,0,1-.25,1.031,2.451,2.451,0,0,1-.719.816A3.533,3.533,0,0,1-21.4-.035a5.2,5.2,0,0,1-1.465.191,4.309,4.309,0,0,1-2-.422A3.123,3.123,0,0,1-26.1-1.34a2.454,2.454,0,0,1-.418-1.34h2.133a1.231,1.231,0,0,0,.238.742,1.252,1.252,0,0,0,.57.406,2.212,2.212,0,0,0,.754.125,1.89,1.89,0,0,0,.727-.121,1.021,1.021,0,0,0,.441-.328A.789.789,0,0,0-21.5-2.336Zm6.023-6.117V0h-2.258V-8.453Zm-2.4-2.2a1.062,1.062,0,0,1,.344-.812,1.3,1.3,0,0,1,.922-.32,1.3,1.3,0,0,1,.918.32,1.057,1.057,0,0,1,.348.813,1.057,1.057,0,0,1-.348.813,1.3,1.3,0,0,1-.918.32,1.3,1.3,0,0,1-.922-.32A1.062,1.062,0,0,1-17.875-10.656Zm3.9,6.516V-4.3a5.321,5.321,0,0,1,.266-1.715,3.965,3.965,0,0,1,.773-1.363,3.506,3.506,0,0,1,1.25-.9,4.218,4.218,0,0,1,1.7-.324,4.275,4.275,0,0,1,1.711.324,3.528,3.528,0,0,1,1.262.9A3.931,3.931,0,0,1-6.234-6.02,5.321,5.321,0,0,1-5.969-4.3v.164a5.3,5.3,0,0,1-.266,1.707,3.973,3.973,0,0,1-.777,1.367,3.481,3.481,0,0,1-1.254.9,4.263,4.263,0,0,1-1.7.32,4.292,4.292,0,0,1-1.707-.32,3.474,3.474,0,0,1-1.258-.9,3.973,3.973,0,0,1-.777-1.367A5.3,5.3,0,0,1-13.977-4.141Zm2.25-.164v.164a4.977,4.977,0,0,0,.094.992,2.569,2.569,0,0,0,.3.809,1.507,1.507,0,0,0,.543.543,1.607,1.607,0,0,0,.82.2,1.574,1.574,0,0,0,.8-.2,1.477,1.477,0,0,0,.539-.543,2.7,2.7,0,0,0,.3-.809,4.784,4.784,0,0,0,.1-.992V-4.3a4.648,4.648,0,0,0-.1-.973,2.741,2.741,0,0,0-.3-.812,1.552,1.552,0,0,0-.543-.559,1.542,1.542,0,0,0-.812-.2,1.521,1.521,0,0,0-.809.2,1.563,1.563,0,0,0-.539.559,2.667,2.667,0,0,0-.3.813A4.835,4.835,0,0,0-11.727-4.3Zm.664-5.289L-9.531-12h2.445L-9.234-9.594Zm8.68,2.945V0h-2.25V-8.453h2.109Zm-.328,2.125H-3.32a5.516,5.516,0,0,1,.242-1.691A3.894,3.894,0,0,1-2.4-7.5a2.968,2.968,0,0,1,1.043-.82A3.142,3.142,0,0,1,0-8.609a3.275,3.275,0,0,1,1.086.172,2.109,2.109,0,0,1,.848.547A2.487,2.487,0,0,1,2.48-6.9a5.144,5.144,0,0,1,.191,1.508V0H.406V-5.4A1.993,1.993,0,0,0,.25-6.273a.9.9,0,0,0-.457-.441,1.875,1.875,0,0,0-.738-.129,1.626,1.626,0,0,0-.785.18,1.537,1.537,0,0,0-.547.5A2.354,2.354,0,0,0-2.6-5.43,3.6,3.6,0,0,0-2.711-4.523ZM12.922-1.906V-5.672a1.683,1.683,0,0,0-.133-.7,1,1,0,0,0-.41-.457,1.39,1.39,0,0,0-.715-.164,1.508,1.508,0,0,0-.648.129.971.971,0,0,0-.422.367,1.035,1.035,0,0,0-.148.559H8.2a2.2,2.2,0,0,1,.25-1.023,2.589,2.589,0,0,1,.727-.855A3.628,3.628,0,0,1,10.309-8.4a4.852,4.852,0,0,1,1.48-.211,4.406,4.406,0,0,1,1.75.328,2.7,2.7,0,0,1,1.207.984,2.876,2.876,0,0,1,.441,1.641v3.617A6.139,6.139,0,0,0,15.273-.9a3,3,0,0,0,.25.77V0H13.25A3.166,3.166,0,0,1,13-.863,6.677,6.677,0,0,1,12.922-1.906Zm.3-3.242.016,1.273H11.977a2.627,2.627,0,0,0-.773.1,1.472,1.472,0,0,0-.539.285,1.112,1.112,0,0,0-.309.426,1.408,1.408,0,0,0-.1.531,1.022,1.022,0,0,0,.133.52.913.913,0,0,0,.383.359,1.262,1.262,0,0,0,.586.129,1.826,1.826,0,0,0,.883-.2,1.65,1.65,0,0,0,.582-.5,1.051,1.051,0,0,0,.215-.562l.594.953a4.017,4.017,0,0,1-.34.664,3.119,3.119,0,0,1-.543.645,2.67,2.67,0,0,1-.789.492,2.842,2.842,0,0,1-1.094.191A3.228,3.228,0,0,1,9.41-.168a2.586,2.586,0,0,1-1.031-.9A2.322,2.322,0,0,1,8-2.375a2.671,2.671,0,0,1,.25-1.18,2.32,2.32,0,0,1,.738-.871,3.5,3.5,0,0,1,1.223-.539,7.064,7.064,0,0,1,1.7-.184Zm7.2,3.547a1.621,1.621,0,0,0,.734-.16,1.231,1.231,0,0,0,.5-.453,1.326,1.326,0,0,0,.191-.691h2.117a2.8,2.8,0,0,1-.477,1.582A3.235,3.235,0,0,1,22.227-.238a3.893,3.893,0,0,1-1.766.395,4.154,4.154,0,0,1-1.715-.328,3.328,3.328,0,0,1-1.215-.91A3.923,3.923,0,0,1,16.8-2.441a5.579,5.579,0,0,1-.242-1.668v-.227A5.606,5.606,0,0,1,16.8-6.012a3.923,3.923,0,0,1,.727-1.359,3.335,3.335,0,0,1,1.211-.91,4.106,4.106,0,0,1,1.7-.328,3.979,3.979,0,0,1,1.824.4A3.008,3.008,0,0,1,23.5-7.074a3.345,3.345,0,0,1,.457,1.746H21.844a1.8,1.8,0,0,0-.176-.766,1.358,1.358,0,0,0-.484-.551,1.39,1.39,0,0,0-.777-.207,1.431,1.431,0,0,0-.8.207,1.38,1.38,0,0,0-.484.563,2.769,2.769,0,0,0-.238.8,6.435,6.435,0,0,0-.066.941v.227a6.916,6.916,0,0,0,.063.945,2.575,2.575,0,0,0,.238.8A1.385,1.385,0,0,0,19.6-1.8,1.468,1.468,0,0,0,20.414-1.6ZM29.4-8.453v1.594H24.477V-8.453Zm-3.7-2.086h2.25v7.992a1.29,1.29,0,0,0,.1.563.53.53,0,0,0,.293.27,1.4,1.4,0,0,0,.492.074,3.307,3.307,0,0,0,.379-.02q.168-.02.285-.043L29.5-.047A4.228,4.228,0,0,1,28.875.1a4.636,4.636,0,0,1-.742.055A3.147,3.147,0,0,1,26.84-.09a1.763,1.763,0,0,1-.848-.793,3.01,3.01,0,0,1-.3-1.437Zm9.977,8.516v-6.43h2.25V0H35.8Zm.25-1.734.664-.016a5.988,5.988,0,0,1-.2,1.566A3.7,3.7,0,0,1,35.8-.957a2.686,2.686,0,0,1-.984.82,3.127,3.127,0,0,1-1.4.293A3.527,3.527,0,0,1,32.285-.02a2.225,2.225,0,0,1-.891-.555,2.575,2.575,0,0,1-.578-.977,4.426,4.426,0,0,1-.207-1.441V-8.453h2.25v5.477a1.938,1.938,0,0,0,.09.633,1.1,1.1,0,0,0,.254.422.939.939,0,0,0,.387.234,1.643,1.643,0,0,0,.5.07,1.887,1.887,0,0,0,1.1-.281,1.511,1.511,0,0,0,.57-.77A3.335,3.335,0,0,0,35.922-3.758ZM44.2-1.906V-5.672a1.683,1.683,0,0,0-.133-.7,1,1,0,0,0-.41-.457,1.39,1.39,0,0,0-.715-.164,1.508,1.508,0,0,0-.648.129.971.971,0,0,0-.422.367,1.035,1.035,0,0,0-.148.559h-2.25a2.2,2.2,0,0,1,.25-1.023,2.589,2.589,0,0,1,.727-.855A3.628,3.628,0,0,1,41.582-8.4a4.852,4.852,0,0,1,1.48-.211,4.406,4.406,0,0,1,1.75.328A2.7,2.7,0,0,1,46.02-7.3a2.876,2.876,0,0,1,.441,1.641v3.617A6.139,6.139,0,0,0,46.547-.9a3,3,0,0,0,.25.77V0H44.523a3.166,3.166,0,0,1-.246-.863A6.677,6.677,0,0,1,44.2-1.906Zm.3-3.242.016,1.273H43.25a2.627,2.627,0,0,0-.773.1,1.472,1.472,0,0,0-.539.285,1.112,1.112,0,0,0-.309.426,1.408,1.408,0,0,0-.1.531,1.022,1.022,0,0,0,.133.52.913.913,0,0,0,.383.359,1.262,1.262,0,0,0,.586.129,1.826,1.826,0,0,0,.883-.2,1.65,1.65,0,0,0,.582-.5,1.051,1.051,0,0,0,.215-.562l.594.953a4.016,4.016,0,0,1-.34.664,3.119,3.119,0,0,1-.543.645,2.67,2.67,0,0,1-.789.492,2.842,2.842,0,0,1-1.094.191,3.228,3.228,0,0,1-1.457-.324,2.586,2.586,0,0,1-1.031-.9,2.322,2.322,0,0,1-.379-1.309,2.671,2.671,0,0,1,.25-1.18,2.32,2.32,0,0,1,.738-.871,3.5,3.5,0,0,1,1.223-.539,7.064,7.064,0,0,1,1.7-.184ZM50.57-12V0H48.313V-12Z" transform="translate(2301.729 -8826.051)" fill="#12263f"/>
        <g id="Grupo_1217124" data-name="Grupo 1217124" transform="translate(2260.584 -9546.24)">
          <g id="Grupo_1217106" data-name="Grupo 1217106" clip-path="url(#clip-path)">
            <path id="Trazado_1290010" data-name="Trazado 1290010" d="M81.8,74.041l-72.608,0A1.281,1.281,0,0,1,7.89,72.6l.019-6.454-6.875-.013A1.294,1.294,0,0,1,0,64.928V1.192A1.142,1.142,0,0,1,1.122,0L74.315,0a1.156,1.156,0,0,1,1.078,1.113l-.009,6.716,6.648,0a1.255,1.255,0,0,1,1.257,1.218l0,63.736c0,.748-.511,1.262-1.491,1.262M73.324,2.08H2.087V12.973H73.324ZM10.058,71.9l71.137,0L81.2,9.918l-5.82.025,0,54.986a1.152,1.152,0,0,1-1.065,1.211l-64.369,0ZM73.324,15.027H2.087V64.068H73.324Z" fill="#19538d"/>
            <path id="Trazado_1290011" data-name="Trazado 1290011" d="M101.952,88.415l.014,25.152a3.091,3.091,0,0,1-3.192,3.257l-37.373.007c-1.613,0-3.286-1.049-3.286-2.742l0-31.316a2.829,2.829,0,0,1,2.677-2.591l12.548-.014a3.16,3.16,0,0,1,2.257,1.1l3.126,4.157,20.4.026a2.854,2.854,0,0,1,2.834,2.969m-23.463-.751a3.467,3.467,0,0,1-1.632-.912l-3.224-4.314-13.285.051.02,32,39.257,0,.007-26.775Z" transform="translate(-43.392 -59.859)" fill="#19538d"/>
            <path id="Trazado_1290012" data-name="Trazado 1290012" d="M68.768,28.114l-34.429-.005a1.226,1.226,0,0,1-1.258-1.1c.026-.655.546-1.026,1.291-1.026H69.1a1.6,1.6,0,0,1,.782,1.027c.007.4-.425.888-1.11,1.1" transform="translate(-24.7 -19.401)" fill="#19538d"/>
            <path id="Trazado_1290013" data-name="Trazado 1290013" d="M231.457,26.176a1.024,1.024,0,1,1-1.024-1.024,1.024,1.024,0,0,1,1.024,1.024" transform="translate(-171.295 -18.78)" fill="#19538d"/>
            <path id="Trazado_1290014" data-name="Trazado 1290014" d="M258.582,26.164a1.029,1.029,0,1,1-1.029-1.029,1.029,1.029,0,0,1,1.029,1.029" transform="translate(-191.541 -18.768)" fill="#19538d"/>
            <path id="Trazado_1290015" data-name="Trazado 1290015" d="M204.317,26.226a1.017,1.017,0,1,1-1.017-1.017,1.017,1.017,0,0,1,1.017,1.017" transform="translate(-151.041 -18.823)" fill="#19538d"/>
            <path id="Trazado_1290016" data-name="Trazado 1290016" d="M106.2,145.995l3.129-10.383H112.5l-4.808,13.807H104.72l-4.789-13.807h3.158Z" transform="translate(-74.617 -101.258)" fill="#19538d"/>
            <path id="Trazado_1290017" data-name="Trazado 1290017" d="M162.056,149.362h-2.74V138.783l-3.272,1.01v-2.209l5.718-2.048h.294Z" transform="translate(-116.515 -101.202)" fill="#19538d"/>
          </g>
        </g>
        <g id="Grupo_1217123" data-name="Grupo 1217123" transform="translate(2260.729 -9390.527)">
          <g id="Grupo_1217112" data-name="Grupo 1217112" clip-path="url(#clip-path-2)">
            <path id="Trazado_1290018" data-name="Trazado 1290018" d="M81.8,74.04l-72.608,0A1.281,1.281,0,0,1,7.89,72.6l.019-6.454-6.875-.013A1.294,1.294,0,0,1,0,64.927V1.192A1.142,1.142,0,0,1,1.122,0L74.315,0a1.156,1.156,0,0,1,1.078,1.113l-.009,6.715,6.648,0a1.255,1.255,0,0,1,1.257,1.218l0,63.736c0,.748-.511,1.262-1.491,1.262M73.324,2.08H2.087V12.972H73.324ZM10.058,71.9l71.137,0L81.2,9.918l-5.82.025,0,54.986a1.152,1.152,0,0,1-1.065,1.211l-64.369,0ZM73.324,15.027H2.087v49.04H73.324Z" fill="#19538d"/>
            <path id="Trazado_1290019" data-name="Trazado 1290019" d="M101.952,88.415l.014,25.152a3.091,3.091,0,0,1-3.192,3.257l-37.373.007c-1.613,0-3.286-1.049-3.286-2.742l0-31.316a2.829,2.829,0,0,1,2.677-2.591l12.548-.014a3.16,3.16,0,0,1,2.257,1.1l3.126,4.157,20.4.026a2.854,2.854,0,0,1,2.834,2.969m-23.463-.751a3.467,3.467,0,0,1-1.632-.912l-3.224-4.314-13.285.051.02,32,39.257,0,.007-26.775Z" transform="translate(-43.392 -59.859)" fill="#19538d"/>
            <path id="Trazado_1290020" data-name="Trazado 1290020" d="M68.768,28.114l-34.429-.005a1.226,1.226,0,0,1-1.258-1.1c.026-.655.546-1.026,1.291-1.026H69.1a1.6,1.6,0,0,1,.782,1.027c.007.4-.425.888-1.11,1.1" transform="translate(-24.7 -19.401)" fill="#19538d"/>
            <path id="Trazado_1290021" data-name="Trazado 1290021" d="M231.457,26.176a1.024,1.024,0,1,1-1.024-1.024,1.024,1.024,0,0,1,1.024,1.024" transform="translate(-171.295 -18.781)" fill="#19538d"/>
            <path id="Trazado_1290022" data-name="Trazado 1290022" d="M258.582,26.164a1.029,1.029,0,1,1-1.029-1.029,1.029,1.029,0,0,1,1.029,1.029" transform="translate(-191.541 -18.768)" fill="#19538d"/>
            <path id="Trazado_1290023" data-name="Trazado 1290023" d="M204.317,26.226a1.017,1.017,0,1,1-1.017-1.017,1.017,1.017,0,0,1,1.017,1.017" transform="translate(-151.041 -18.823)" fill="#19538d"/>
            <path id="Trazado_1290024" data-name="Trazado 1290024" d="M106.2,145.995l3.129-10.383H112.5l-4.808,13.807H104.72l-4.789-13.807h3.158Z" transform="translate(-74.617 -101.258)" fill="#19538d"/>
            <path id="Trazado_1290025" data-name="Trazado 1290025" d="M162.152,148.859h-9.464v-1.878l4.466-4.76a11.06,11.06,0,0,0,1.361-1.754,2.819,2.819,0,0,0,.441-1.422,2.11,2.11,0,0,0-.465-1.446,1.678,1.678,0,0,0-1.328-.526,1.81,1.81,0,0,0-1.465.64,2.536,2.536,0,0,0-.536,1.683h-2.75a4.527,4.527,0,0,1,.6-2.3,4.246,4.246,0,0,1,1.7-1.636,5.176,5.176,0,0,1,2.494-.592,4.9,4.9,0,0,1,3.314,1.024,3.623,3.623,0,0,1,1.18,2.892,4.646,4.646,0,0,1-.531,2.086,11.6,11.6,0,0,1-1.821,2.475l-3.139,3.309h5.936Z" transform="translate(-113.804 -100.7)" fill="#19538d"/>
          </g>
        </g>
        <g id="Grupo_1217122" data-name="Grupo 1217122" transform="translate(2259.729 -9233.529)">
          <g id="Grupo_1217114" data-name="Grupo 1217114" clip-path="url(#clip-path-2)">
            <path id="Trazado_1290026" data-name="Trazado 1290026" d="M81.8,74.04l-72.608,0A1.281,1.281,0,0,1,7.89,72.6l.019-6.454-6.875-.013A1.294,1.294,0,0,1,0,64.927V1.192A1.142,1.142,0,0,1,1.122,0L74.315,0a1.156,1.156,0,0,1,1.078,1.113l-.009,6.715,6.648,0a1.255,1.255,0,0,1,1.257,1.218l0,63.736c0,.748-.511,1.262-1.491,1.262M73.324,2.08H2.087V12.972H73.324ZM10.058,71.9l71.137,0L81.2,9.918l-5.82.025,0,54.986a1.152,1.152,0,0,1-1.065,1.211l-64.369,0ZM73.324,15.027H2.087v49.04H73.324Z" fill="#19538d"/>
            <path id="Trazado_1290027" data-name="Trazado 1290027" d="M101.952,88.415l.014,25.152a3.091,3.091,0,0,1-3.192,3.257l-37.373.007c-1.613,0-3.286-1.049-3.286-2.742l0-31.316a2.829,2.829,0,0,1,2.677-2.591l12.548-.014a3.16,3.16,0,0,1,2.257,1.1l3.126,4.157,20.4.026a2.854,2.854,0,0,1,2.834,2.969m-23.463-.751a3.467,3.467,0,0,1-1.632-.912l-3.224-4.314-13.285.051.02,32,39.257,0,.007-26.775Z" transform="translate(-43.392 -59.859)" fill="#19538d"/>
            <path id="Trazado_1290028" data-name="Trazado 1290028" d="M68.768,28.114l-34.429-.005a1.226,1.226,0,0,1-1.258-1.1c.026-.655.546-1.026,1.291-1.026H69.1a1.6,1.6,0,0,1,.782,1.027c.007.4-.425.888-1.11,1.1" transform="translate(-24.7 -19.401)" fill="#19538d"/>
            <path id="Trazado_1290029" data-name="Trazado 1290029" d="M231.457,26.176a1.024,1.024,0,1,1-1.024-1.024,1.024,1.024,0,0,1,1.024,1.024" transform="translate(-171.295 -18.781)" fill="#19538d"/>
            <path id="Trazado_1290030" data-name="Trazado 1290030" d="M258.582,26.164a1.029,1.029,0,1,1-1.029-1.029,1.029,1.029,0,0,1,1.029,1.029" transform="translate(-191.541 -18.768)" fill="#19538d"/>
            <path id="Trazado_1290031" data-name="Trazado 1290031" d="M204.317,26.226a1.017,1.017,0,1,1-1.017-1.017,1.017,1.017,0,0,1,1.017,1.017" transform="translate(-151.041 -18.823)" fill="#19538d"/>
            <path id="Trazado_1290032" data-name="Trazado 1290032" d="M106.2,145.995l3.129-10.383H112.5l-4.808,13.807H104.72l-4.789-13.807h3.158Z" transform="translate(-74.617 -101.258)" fill="#19538d"/>
            <path id="Trazado_1290033" data-name="Trazado 1290033" d="M155.308,140.742h1.46a2.057,2.057,0,0,0,1.546-.522,1.91,1.91,0,0,0,.5-1.384,1.69,1.69,0,0,0-.5-1.3,1.93,1.93,0,0,0-1.37-.465,2.021,2.021,0,0,0-1.318.431,1.379,1.379,0,0,0-.531,1.123h-2.741a3.371,3.371,0,0,1,.583-1.939,3.888,3.888,0,0,1,1.631-1.342,5.444,5.444,0,0,1,2.309-.483,5.163,5.163,0,0,1,3.433,1.048,3.575,3.575,0,0,1,1.242,2.887,2.907,2.907,0,0,1-.578,1.745,3.759,3.759,0,0,1-1.517,1.223,3.432,3.432,0,0,1,1.74,1.252,3.4,3.4,0,0,1,.574,1.972,3.634,3.634,0,0,1-1.342,2.949,5.4,5.4,0,0,1-3.551,1.11,5.115,5.115,0,0,1-3.381-1.091,3.56,3.56,0,0,1-1.313-2.883h2.74a1.588,1.588,0,0,0,.583,1.271,2.433,2.433,0,0,0,2.968-.024,1.784,1.784,0,0,0,.555-1.37q0-2.067-2.276-2.067h-1.451Z" transform="translate(-113.636 -100.7)" fill="#19538d"/>
          </g>
        </g>
        <g id="Grupo_1217120" data-name="Grupo 1217120" transform="translate(2259.729 -9081.529)">
          <g id="Grupo_1217116" data-name="Grupo 1217116" clip-path="url(#clip-path-2)">
            <path id="Trazado_1290034" data-name="Trazado 1290034" d="M81.8,74.04l-72.608,0A1.281,1.281,0,0,1,7.89,72.6l.019-6.454-6.875-.013A1.294,1.294,0,0,1,0,64.927V1.192A1.142,1.142,0,0,1,1.122,0L74.315,0a1.156,1.156,0,0,1,1.078,1.113l-.009,6.715,6.648,0a1.255,1.255,0,0,1,1.257,1.218l0,63.736c0,.748-.511,1.262-1.491,1.262M73.324,2.08H2.087V12.972H73.324ZM10.058,71.9l71.137,0L81.2,9.918l-5.82.025,0,54.986a1.152,1.152,0,0,1-1.065,1.211l-64.369,0ZM73.324,15.027H2.087v49.04H73.324Z" fill="#19538d"/>
            <path id="Trazado_1290035" data-name="Trazado 1290035" d="M101.952,88.415l.014,25.152a3.091,3.091,0,0,1-3.192,3.257l-37.373.007c-1.613,0-3.286-1.049-3.286-2.742l0-31.316a2.829,2.829,0,0,1,2.677-2.591l12.548-.014a3.16,3.16,0,0,1,2.257,1.1l3.126,4.157,20.4.026a2.854,2.854,0,0,1,2.834,2.969m-23.463-.751a3.467,3.467,0,0,1-1.632-.912l-3.224-4.314-13.285.051.02,32,39.257,0,.007-26.775Z" transform="translate(-43.392 -59.859)" fill="#19538d"/>
            <path id="Trazado_1290036" data-name="Trazado 1290036" d="M68.768,28.114l-34.429-.005a1.226,1.226,0,0,1-1.258-1.1c.026-.655.546-1.026,1.291-1.026H69.1a1.6,1.6,0,0,1,.782,1.027c.007.4-.425.888-1.11,1.1" transform="translate(-24.7 -19.401)" fill="#19538d"/>
            <path id="Trazado_1290037" data-name="Trazado 1290037" d="M231.457,26.176a1.024,1.024,0,1,1-1.024-1.024,1.024,1.024,0,0,1,1.024,1.024" transform="translate(-171.295 -18.781)" fill="#19538d"/>
            <path id="Trazado_1290038" data-name="Trazado 1290038" d="M258.582,26.164a1.029,1.029,0,1,1-1.029-1.029,1.029,1.029,0,0,1,1.029,1.029" transform="translate(-191.541 -18.768)" fill="#19538d"/>
            <path id="Trazado_1290039" data-name="Trazado 1290039" d="M204.317,26.226a1.017,1.017,0,1,1-1.017-1.017,1.017,1.017,0,0,1,1.017,1.017" transform="translate(-151.041 -18.823)" fill="#19538d"/>
            <path id="Trazado_1290040" data-name="Trazado 1290040" d="M106.2,145.995l3.129-10.383H112.5l-4.808,13.807H104.72l-4.789-13.807h3.158Z" transform="translate(-74.617 -101.258)" fill="#19538d"/>
            <path id="Trazado_1290041" data-name="Trazado 1290041" d="M160.376,144.221h1.565v2.21h-1.565v2.987h-2.74v-2.987h-5.661l-.123-1.726,5.756-9.094h2.769Zm-5.794,0h3.054v-4.874l-.18.313Z" transform="translate(-113.384 -101.258)" fill="#19538d"/>
          </g>
        </g>
        <g id="Grupo_1217121" data-name="Grupo 1217121" transform="translate(2259.729 -8927.529)">
          <g id="Grupo_1217118" data-name="Grupo 1217118" clip-path="url(#clip-path-2)">
            <path id="Trazado_1290042" data-name="Trazado 1290042" d="M81.8,74.04l-72.608,0A1.281,1.281,0,0,1,7.89,72.6l.019-6.454-6.875-.013A1.294,1.294,0,0,1,0,64.927V1.192A1.142,1.142,0,0,1,1.122,0L74.315,0a1.156,1.156,0,0,1,1.078,1.113l-.009,6.715,6.648,0a1.255,1.255,0,0,1,1.257,1.218l0,63.736c0,.748-.511,1.262-1.491,1.262M73.324,2.08H2.087V12.972H73.324ZM10.058,71.9l71.137,0L81.2,9.918l-5.82.025,0,54.986a1.152,1.152,0,0,1-1.065,1.211l-64.369,0ZM73.324,15.027H2.087v49.04H73.324Z" fill="#19538d"/>
            <path id="Trazado_1290043" data-name="Trazado 1290043" d="M101.952,88.415l.014,25.152a3.091,3.091,0,0,1-3.192,3.257l-37.373.007c-1.613,0-3.286-1.049-3.286-2.742l0-31.316a2.829,2.829,0,0,1,2.677-2.591l12.548-.014a3.16,3.16,0,0,1,2.257,1.1l3.126,4.157,20.4.026a2.854,2.854,0,0,1,2.834,2.969m-23.463-.751a3.467,3.467,0,0,1-1.632-.912l-3.224-4.314-13.285.051.02,32,39.257,0,.007-26.775Z" transform="translate(-43.392 -59.859)" fill="#19538d"/>
            <path id="Trazado_1290044" data-name="Trazado 1290044" d="M68.768,28.114l-34.429-.005a1.226,1.226,0,0,1-1.258-1.1c.026-.655.546-1.026,1.291-1.026H69.1a1.6,1.6,0,0,1,.782,1.027c.007.4-.425.888-1.11,1.1" transform="translate(-24.7 -19.401)" fill="#19538d"/>
            <path id="Trazado_1290045" data-name="Trazado 1290045" d="M231.457,26.176a1.024,1.024,0,1,1-1.024-1.024,1.024,1.024,0,0,1,1.024,1.024" transform="translate(-171.295 -18.781)" fill="#19538d"/>
            <path id="Trazado_1290046" data-name="Trazado 1290046" d="M258.582,26.164a1.029,1.029,0,1,1-1.029-1.029,1.029,1.029,0,0,1,1.029,1.029" transform="translate(-191.541 -18.768)" fill="#19538d"/>
            <path id="Trazado_1290047" data-name="Trazado 1290047" d="M204.317,26.226a1.017,1.017,0,1,1-1.017-1.017,1.017,1.017,0,0,1,1.017,1.017" transform="translate(-151.041 -18.823)" fill="#19538d"/>
            <path id="Trazado_1290048" data-name="Trazado 1290048" d="M106.2,145.995l3.129-10.383H112.5l-4.808,13.807H104.72l-4.789-13.807h3.158Z" transform="translate(-74.617 -101.258)" fill="#19538d"/>
            <path id="Trazado_1290049" data-name="Trazado 1290049" d="M154.074,142.628l.8-7.017h7.738V137.9h-5.49l-.341,2.968a4.345,4.345,0,0,1,2.076-.521,3.979,3.979,0,0,1,3.091,1.223,4.886,4.886,0,0,1,1.119,3.423,5.008,5.008,0,0,1-.564,2.394,3.981,3.981,0,0,1-1.617,1.64,5.047,5.047,0,0,1-2.485.583,5.361,5.361,0,0,1-2.323-.507,4.119,4.119,0,0,1-1.692-1.427,3.889,3.889,0,0,1-.659-2.1h2.712a2.025,2.025,0,0,0,.6,1.342,1.909,1.909,0,0,0,1.351.479,1.685,1.685,0,0,0,1.432-.669,3.1,3.1,0,0,0,.5-1.892,2.561,2.561,0,0,0-.579-1.8,2.123,2.123,0,0,0-1.64-.626,2.373,2.373,0,0,0-1.584.512l-.266.246Z" transform="translate(-114.782 -101.258)" fill="#19538d"/>
          </g>
        </g>
        <path id="Trazado_1291784" data-name="Trazado 1291784" d="M75.211.036A97.737,97.737,0,0,0,44.962,5.9,119.57,119.57,0,0,0,21.4,17.541,130.374,130.374,0,0,0,6.075,28.929C2.535,32,.617,34.041.537,34.126a1.978,1.978,0,0,0,.119,2.826,2.06,2.06,0,0,0,2.875-.117c.043-.046,1.927-2.039,5.324-4.981A126.16,126.16,0,0,1,23.722,20.83C35.283,13.506,53.629,4.648,75.37,4.034,76.184,4.011,77,4,77.814,4c22.622,0,44.6,8.887,65.481,26.462L136.774,38.1,159.7,42.3l-8.188-21.463-5.6,6.562A141.728,141.728,0,0,0,132.7,17.5,114.163,114.163,0,0,0,112.62,6.884,95.981,95.981,0,0,0,93.36,1.35,90.638,90.638,0,0,0,77.784,0Q76.5,0,75.211.036Z" transform="translate(2418.963 -9497.864) rotate(90)" fill="#4dd0e1" opacity="0.8"/>
        <path id="Trazado_1291785" data-name="Trazado 1291785" d="M75.211.036A97.737,97.737,0,0,0,44.962,5.9,119.57,119.57,0,0,0,21.4,17.541,130.374,130.374,0,0,0,6.075,28.929C2.535,32,.617,34.041.537,34.126a1.978,1.978,0,0,0,.119,2.826,2.06,2.06,0,0,0,2.875-.117c.043-.046,1.927-2.039,5.324-4.981A126.16,126.16,0,0,1,23.722,20.83C35.283,13.506,53.629,4.648,75.37,4.034,76.184,4.011,77,4,77.814,4c22.622,0,44.6,8.887,65.481,26.462L136.774,38.1,159.7,42.3l-8.188-21.463-5.6,6.562A141.728,141.728,0,0,0,132.7,17.5,114.163,114.163,0,0,0,112.62,6.884,95.981,95.981,0,0,0,93.36,1.35,90.638,90.638,0,0,0,77.784,0Q76.5,0,75.211.036Z" transform="translate(2418.963 -9193.009) rotate(90)" fill="#4dd0e1" opacity="0.8"/>
        <path id="Trazado_1291786" data-name="Trazado 1291786" d="M133.588,4.2l6.369,7.64C119.562,29.413,98.1,38.3,76,38.3c-.794,0-1.593-.012-2.388-.034-21.234-.615-39.152-9.473-50.445-16.8A123.639,123.639,0,0,1,8.648,10.445C5.33,7.5,3.492,5.51,3.449,5.464A1.978,1.978,0,0,0,.641,5.347,2.009,2.009,0,0,0,.526,8.173c.078.086,1.951,2.125,5.408,5.2A127.626,127.626,0,0,0,20.9,24.758,115.774,115.774,0,0,0,43.915,36.4a93.479,93.479,0,0,0,29.544,5.868q1.255.036,2.513.036a86.434,86.434,0,0,0,15.213-1.35A92.088,92.088,0,0,0,110,35.415,110.622,110.622,0,0,0,129.61,24.8a138.84,138.84,0,0,0,12.9-9.9l5.472,6.563,8-21.464Z" transform="translate(2228.047 -9334.153) rotate(90)" fill="#4dd0e1" opacity="0.8"/>
        <path id="Trazado_1291787" data-name="Trazado 1291787" d="M133.588,4.2l6.369,7.64C119.562,29.413,98.1,38.3,76,38.3c-.794,0-1.593-.012-2.388-.034-21.234-.615-39.152-9.473-50.445-16.8A123.639,123.639,0,0,1,8.648,10.445C5.33,7.5,3.492,5.51,3.449,5.464A1.978,1.978,0,0,0,.641,5.347,2.009,2.009,0,0,0,.526,8.173c.078.086,1.951,2.125,5.408,5.2A127.626,127.626,0,0,0,20.9,24.758,115.774,115.774,0,0,0,43.915,36.4a93.479,93.479,0,0,0,29.544,5.868q1.255.036,2.513.036a86.434,86.434,0,0,0,15.213-1.35A92.088,92.088,0,0,0,110,35.415,110.622,110.622,0,0,0,129.61,24.8a138.84,138.84,0,0,0,12.9-9.9l5.472,6.563,8-21.464Z" transform="translate(2228.047 -9029.299) rotate(90)" fill="#4dd0e1" opacity="0.8"/>
      </g>
    </g>
  </g>
</svg>
