<svg xmlns="http://www.w3.org/2000/svg" xmlns:xlink="http://www.w3.org/1999/xlink" width="85" height="85" viewBox="0 0 85 85">
  <defs>
    <clipPath id="clip-path">
      <rect id="Rectángulo_468030" data-name="Rectángulo 468030" width="67.667" height="67.695" fill="#1e535a"/>
    </clipPath>
  </defs>
  <g id="Grupo_1212378" data-name="Grupo 1212378" transform="translate(-705.629 -409.863)">
    <path id="Sustracción_110" data-name="Sustracción 110" d="M15975.961,19829.512h85v85h-85Z" transform="translate(-15270.332 -19419.648)" fill="#ffde92"/>
    <g id="Grupo_1216603" data-name="Grupo 1216603" transform="translate(714.629 418.864)">
      <g id="Grupo_1216602" data-name="Grupo 1216602" clip-path="url(#clip-path)">
        <path id="Trazado_1289336" data-name="Trazado 1289336" d="M115.73,97.957a1.2,1.2,0,0,1-1.151-1.1l0-5.509-14.029,0v24.737l5.932.008a1.217,1.217,0,0,1,1.059,1.172,1.275,1.275,0,0,1-1.062,1.163l-7.089,0a1.231,1.231,0,0,1-1.168-1.237V90.361c0-1.024.7-1.36,1.613-1.359l16.329.015,3.339,3.125,4.381,4.252,0,20.815a1.242,1.242,0,0,1-1.168,1.227l-7.091,0a1.281,1.281,0,0,1-1.06-1.154,1.2,1.2,0,0,1,1.279-1.19l5.711.007V97.949Zm3.925-2.382-2.71-2.651-.055,2.718Z" transform="translate(-77.22 -69.97)" fill="#1e535a"/>
        <path id="Trazado_1289337" data-name="Trazado 1289337" d="M22.06,16.38H1.261a1.259,1.259,0,0,1-1.25-1.272V1.023C.111.665.653,0,1.048,0l21.1,0a1.245,1.245,0,0,1,1.191,1.2V15.126a1.289,1.289,0,0,1-1.28,1.254M21.012,2.325H2.337V14.044H21.012Z" transform="translate(-0.008)" fill="#1e535a"/>
        <path id="Trazado_1289338" data-name="Trazado 1289338" d="M229.506,16.382H208.713a1.3,1.3,0,0,1-1.373-1.257l0-13.92A1.245,1.245,0,0,1,208.53,0l21.1,0c.4,0,.937.662,1.038,1.021V15.1a1.279,1.279,0,0,1-1.163,1.278M228.342,2.326H209.668V14.045h18.674Z" transform="translate(-163.002 -0.001)" fill="#1e535a"/>
        <path id="Trazado_1289339" data-name="Trazado 1289339" d="M22.029,256.31l-20.37,0A1.562,1.562,0,0,1,0,255.234l.007-14.26a1.253,1.253,0,0,1,1.048-1.047l20.907,0a1.245,1.245,0,0,1,1.368,1.23l0,13.91a1.319,1.319,0,0,1-1.3,1.248M21,242.247H2.329v11.726H21Z" transform="translate(0 -188.618)" fill="#1e535a"/>
        <path id="Trazado_1289340" data-name="Trazado 1289340" d="M229.12,256.315l-20.387,0a1.314,1.314,0,0,1-1.391-1.245V241.154a1.244,1.244,0,0,1,1.369-1.229l20.9,0a1.247,1.247,0,0,1,1.057,1.239v14.066a1.51,1.51,0,0,1-1.552,1.081m-.775-14.066H209.671v11.726h18.674Z" transform="translate(-163.005 -188.621)" fill="#1e535a"/>
        <path id="Trazado_1289341" data-name="Trazado 1289341" d="M56.28,99.1l-6,.042c-.424,0-1.189-.588-1.19-1.043l-.018-9.364a1.327,1.327,0,0,1,.9-1.318c.55-.13,1.414.227,1.416.864l.028,8.533,4.675.016a1.2,1.2,0,0,1,1.112.989c.058.388-.4,1.276-.931,1.28" transform="translate(-38.582 -68.702)" fill="#1e535a"/>
        <path id="Trazado_1289342" data-name="Trazado 1289342" d="M230.429,99.01a1.335,1.335,0,0,1-1.1-1.077c-.023-.49.382-1.175.9-1.183l4.89-.066.022-8.516c0-.518.769-.941,1.211-.912.384.025,1.1.523,1.1,1l0,9.739c0,.458-.779,1.037-1.2,1.036Z" transform="translate(-180.293 -68.597)" fill="#1e535a"/>
        <path id="Trazado_1289343" data-name="Trazado 1289343" d="M51.449,176.414l-.026,8.5c0,.522-.766.94-1.214.906a1.264,1.264,0,0,1-1.1-1.171l0-9.373a1.34,1.34,0,0,1,1.216-1.218l5.885.021c.481,0,1.01.7,1.026,1.084a1.217,1.217,0,0,1-1.117,1.243Z" transform="translate(-38.606 -136.841)" fill="#1e535a"/>
        <path id="Trazado_1289344" data-name="Trazado 1289344" d="M237.487,184.665a1.265,1.265,0,0,1-1.081,1.162c-.86.011-1.251-.523-1.251-1.343v-8.056l-4.455,0a1.255,1.255,0,0,1-1.327-1.042,1.228,1.228,0,0,1,1.207-1.3l5.689-.008a1.329,1.329,0,0,1,1.219,1.214Z" transform="translate(-180.321 -136.854)" fill="#1e535a"/>
        <path id="Trazado_1289345" data-name="Trazado 1289345" d="M141.444,177.058l-9.313.009a1.4,1.4,0,0,1-1.224-1,1.18,1.18,0,0,1,1-1.332l9.666-.006c.539,0,1.013.686,1.017,1.164a1.319,1.319,0,0,1-1.146,1.161" transform="translate(-102.903 -137.368)" fill="#1e535a"/>
        <path id="Trazado_1289346" data-name="Trazado 1289346" d="M141.439,155.091l-9.3.009a1.309,1.309,0,0,1-1.244-1.182,1.236,1.236,0,0,1,1.242-1.165l9.21,0a1.306,1.306,0,0,1,1.227.993,1.237,1.237,0,0,1-1.134,1.348" transform="translate(-102.904 -120.087)" fill="#1e535a"/>
        <path id="Trazado_1289347" data-name="Trazado 1289347" d="M155.113,216.826a1.164,1.164,0,1,1-1.164-1.164,1.164,1.164,0,0,1,1.164,1.164" transform="translate(-120.114 -169.546)" fill="#1e535a"/>
        <path id="Trazado_1289348" data-name="Trazado 1289348" d="M47.149,24.8a1.241,1.241,0,0,1-1.383.981,1.171,1.171,0,0,1-.912-1.477l1.8-6.732a1.2,1.2,0,0,1,1.445-1.04,1.212,1.212,0,0,1,.866,1.418Z" transform="translate(-35.229 -12.982)" fill="#1e535a"/>
        <path id="Trazado_1289349" data-name="Trazado 1289349" d="M69.351,28.282l-1.706,1.757a1.255,1.255,0,0,1-1.839.072c-1.015-1.14.881-2.1.849-2.522-.038-.515-1.7-1.188-.943-2.393a1.209,1.209,0,0,1,1.815-.142l1.754,1.759a1.273,1.273,0,0,1,.069,1.469" transform="translate(-51.499 -19.427)" fill="#1e535a"/>
        <path id="Trazado_1289350" data-name="Trazado 1289350" d="M27.147,30.236l-2.083-2.028a1.345,1.345,0,0,1,0-1.416l2.082-2.022c.437-.424,1.44-.012,1.635.486a1.61,1.61,0,0,1-.553,1.675l-.544.559c-.155.16,1.589,1.058,1.115,2.268-.2.512-1.216.906-1.655.479" transform="translate(-19.547 -19.335)" fill="#1e535a"/>
        <path id="Trazado_1289351" data-name="Trazado 1289351" d="M254.256,25.179c-.141.518-1,.715-1.477.554a1.326,1.326,0,0,1-.7-1.385l1.911-7.1a1.221,1.221,0,0,1,1.461-.683,1.276,1.276,0,0,1,.718,1.594Z" transform="translate(-198.152 -12.978)" fill="#1e535a"/>
        <path id="Trazado_1289352" data-name="Trazado 1289352" d="M233.91,30.069l-1.626-1.658a1.2,1.2,0,0,1,0-1.561l1.628-1.661a1.274,1.274,0,0,1,1.83-.077c1.01,1.136-.827,2.066-.844,2.517-.016.433,1.856,1.369.848,2.522a1.259,1.259,0,0,1-1.84-.083" transform="translate(-182.387 -19.465)" fill="#1e535a"/>
        <path id="Trazado_1289353" data-name="Trazado 1289353" d="M276.745,28.233l-1.905,1.946a1.324,1.324,0,0,1-1.607.067,1.271,1.271,0,0,1-.033-1.7l.93-.926-.938-.951a1.282,1.282,0,0,1-.057-1.548,1.19,1.19,0,0,1,1.712-.048l1.83,1.83a1.349,1.349,0,0,1,.067,1.326" transform="translate(-214.539 -19.448)" fill="#1e535a"/>
        <path id="Trazado_1289354" data-name="Trazado 1289354" d="M47.022,264.75a1.275,1.275,0,0,1-1.382,1c-.417-.056-1.1-.759-.964-1.27L46.692,257c.111-.411,1.031-.627,1.451-.478a1.323,1.323,0,0,1,.706,1.391Z" transform="translate(-35.108 -201.628)" fill="#1e535a"/>
        <path id="Trazado_1289355" data-name="Trazado 1289355" d="M69.359,268.289l-1.707,1.758a1.263,1.263,0,0,1-1.827.069c-1.015-1.153.842-2.072.842-2.519,0-.487-1.7-1.187-.946-2.4a1.228,1.228,0,0,1,1.819-.143L69.3,266.82a1.27,1.27,0,0,1,.063,1.469" transform="translate(-51.511 -208.115)" fill="#1e535a"/>
        <path id="Trazado_1289356" data-name="Trazado 1289356" d="M28.532,268.479a1.21,1.21,0,0,1-.007,1.716,1.242,1.242,0,0,1-1.7-.148l-1.75-1.784a1.31,1.31,0,0,1,.093-1.473l2.012-1.948c.276-.268,1.234-.075,1.476.223a1.458,1.458,0,0,1,.03,1.454l-1.035,1.09Z" transform="translate(-19.567 -208.109)" fill="#1e535a"/>
        <path id="Trazado_1289357" data-name="Trazado 1289357" d="M254.412,264.585c-.226.845-.632,1.278-1.475,1.137a1.236,1.236,0,0,1-.863-1.426l1.848-6.936a1.242,1.242,0,0,1,1.353-.9,1.168,1.168,0,0,1,.915,1.479Z" transform="translate(-198.146 -201.614)" fill="#1e535a"/>
        <path id="Trazado_1289358" data-name="Trazado 1289358" d="M234.358,270.435l-2.095-2a1.258,1.258,0,0,1,.009-1.568l1.761-1.776a1.294,1.294,0,0,1,1.707.018c1.018,1.191-.878,2.113-.84,2.541.052.577,1.448.888,1.039,2.263-.122.411-1.213.873-1.581.521" transform="translate(-182.385 -208.161)" fill="#1e535a"/>
        <path id="Trazado_1289359" data-name="Trazado 1289359" d="M276.492,268.44l-1.671,1.647a1.243,1.243,0,0,1-1.568.056,1.212,1.212,0,0,1-.048-1.682l.923-.941-.956-.945a1.559,1.559,0,0,1-.147-1.452c.2-.39,1.241-.67,1.567-.35l2.1,2.07c.4.4.153,1.245-.2,1.6" transform="translate(-214.535 -208.046)" fill="#1e535a"/>
      </g>
    </g>
  </g>
</svg>
