<svg xmlns="http://www.w3.org/2000/svg" xmlns:xlink="http://www.w3.org/1999/xlink" width="85" height="85" viewBox="0 0 85 85">
  <defs>
    <clipPath id="clip-path">
      <rect id="Rectángulo_467881" data-name="Rectángulo 467881" width="70" height="63.409" fill="#1e535a"/>
    </clipPath>
  </defs>
  <g id="Grupo_1215846" data-name="Grupo 1215846" transform="translate(-705.764 -409.375)">
    <path id="Sustracción_110" data-name="Sustracción 110" d="M15975.961,19829.512h85v85h-85Z" transform="translate(-15270.197 -19420.137)" fill="#ffde92"/>
    <g id="Grupo_1216563" data-name="Grupo 1216563" transform="translate(713.764 420.375)">
      <g id="Grupo_1216562" data-name="Grupo 1216562" clip-path="url(#clip-path)">
        <path id="Trazado_1289074" data-name="Trazado 1289074" d="M3.677,135.554c-2.485,0-3.677-1.7-3.677-3.86,0-1.991,1.074-3.851,3.328-3.852l31.781-.016A22.368,22.368,0,0,0,57.4,106.532l-2.149-.013a1.487,1.487,0,0,1-.99-.5,1.557,1.557,0,0,1,.153-1.295l5.829-6.343a2.349,2.349,0,0,1,.932-.6c.3-.06.868.311,1.1.583l5.942,6.476a2.63,2.63,0,0,1,.04,1.174,1.348,1.348,0,0,1-.993.511l-2.2-.021a30.142,30.142,0,0,1-30.214,29.034Zm-1.489-3.78a1.3,1.3,0,0,0,1.356,1.551l31.086.014a28.19,28.19,0,0,0,28.308-28.362c.168-.5,1.186-.685,1.836-.634l-3.5-3.847-3.531,3.84a4.6,4.6,0,0,1,1.555.3c.247.156.335.748.327,1.194a24.467,24.467,0,0,1-23.424,24.1l-32.653.155c-.407,0-1,.159-1.124.406a4.166,4.166,0,0,0-.232,1.28" transform="translate(0 -75.373)" fill="#1e535a"/>
        <path id="Trazado_1289075" data-name="Trazado 1289075" d="M63.523,21.23a1.148,1.148,0,0,1-.83,1.546c-.525.117-1.036-.28-1.292-.923a22.4,22.4,0,0,0-43.219,7.182l2.175-.03A1.4,1.4,0,0,1,21.4,29.7a1.732,1.732,0,0,1-.376,1.238L15.2,37.284a1.183,1.183,0,0,1-1.755,0L7.744,31.059a2.818,2.818,0,0,1-.555-.953c-.077-.3.41-1.034.727-1.042L10.527,29A30.057,30.057,0,0,1,67.562,16.854a1.217,1.217,0,0,1-.5,1.434,1.31,1.31,0,0,1-1.506-.522,27.751,27.751,0,0,0-45.428-6.55,28.067,28.067,0,0,0-7.5,19.159c-.006.569-.934.844-1.724.829l3.429,3.777,3.474-3.8c-.634.051-1.778-.167-1.794-.769A24.572,24.572,0,0,1,63.523,21.23" transform="translate(-5.536 0)" fill="#1e535a"/>
        <path id="Trazado_1289076" data-name="Trazado 1289076" d="M102.991,89.848a17.013,17.013,0,0,1-12.823.074c-.539-1.869.347-3.708-.724-4.032L86.9,87.325a2,2,0,0,1-1.285-.114,17.336,17.336,0,0,1-5.754-9.893c-.032-.225.062-1.075.291-1.212l2.846-1.7c-.334-1.181-2.245-1.291-3.228-2.6a16.565,16.565,0,0,1,6.408-11c1.62.525,3.368,2.122,3.614,1.549.466-1.086-.041-2.42.362-3.864a16.85,16.85,0,0,1,12.719,0c.512,1.758-.311,3.529.654,4l2.223-1.2a1.545,1.545,0,0,1,2.072.265,17.137,17.137,0,0,1,5.359,9.585,1.537,1.537,0,0,1-.648,1.378l-2.692,1.635,2.578,1.634a1.427,1.427,0,0,1,.78,1.3,16.983,16.983,0,0,1-5.786,10.1,1.644,1.644,0,0,1-1.438.055l-2.283-1.338c-.248-.146-.65.494-.654.758Zm-2.04-1.643a18.5,18.5,0,0,1,.056-3.3,10.75,10.75,0,0,1,2.671-1.465l2.844,1.546a14.024,14.024,0,0,0,4.358-7.566c-.969-.6-2.135-.928-2.717-1.822a5.266,5.266,0,0,1-.061-3l2.8-1.677a15.586,15.586,0,0,0-4.292-7.547l-3.072,1.653-2.6-1.567-.069-3.392a15.079,15.079,0,0,0-8.725.06l-.066,3.4-2.616,1.492-3-1.653a15.063,15.063,0,0,0-4.3,7.528l2.585,1.6c.4.247.326,1.33.358,1.779a1.978,1.978,0,0,1-.922,2.034l-2.065,1.205A14.706,14.706,0,0,0,86.527,85l2.813-1.562a7.469,7.469,0,0,1,2.735,1.6l.073,3.24a13.664,13.664,0,0,0,8.8-.076" transform="translate(-61.49 -44.137)" fill="#1e535a"/>
        <path id="Trazado_1289077" data-name="Trazado 1289077" d="M213.612,223.827l12.836.017c.541,0,.871.992.983,1.7l3.683-3.395-3.772-3.417c.05.689-.293,1.788-.913,1.795l-4.133.044a1.418,1.418,0,0,1-1.049-1.019,1.242,1.242,0,0,1,1.023-1.21l2.8-.012.013-2.089c0-.3.219-.955.486-1.023a4.621,4.621,0,0,1,1.22,0l6.206,5.739c.684.254,1.138,1.378.555,1.918l-6.443,5.967a1.884,1.884,0,0,1-1.177.438,1.439,1.439,0,0,1-.851-1.068l-.019-2.152-11.414-.005a1.343,1.343,0,0,1-1.14-1.01,1.146,1.146,0,0,1,1.109-1.221" transform="translate(-163.815 -165.88)" fill="#1e535a"/>
        <path id="Trazado_1289078" data-name="Trazado 1289078" d="M62.155,173.854a1.22,1.22,0,0,1,.452,1.608,1.125,1.125,0,0,1-1.68.219,24.711,24.711,0,0,1-8.58-11.128,1.141,1.141,0,0,1,.606-1.469,1.24,1.24,0,0,1,1.4.594,22.475,22.475,0,0,0,7.805,10.175" transform="translate(-40.294 -125.687)" fill="#1e535a"/>
        <path id="Trazado_1289079" data-name="Trazado 1289079" d="M40.9,189.135a1.145,1.145,0,0,1-.366,1.608,1.327,1.327,0,0,1-1.445-.386,33.661,33.661,0,0,1-4.333-6.475,1.315,1.315,0,0,1,.428-1.428,1.177,1.177,0,0,1,1.512.4,33.284,33.284,0,0,0,4.2,6.277" transform="translate(-26.729 -140.554)" fill="#1e535a"/>
        <path id="Trazado_1289080" data-name="Trazado 1289080" d="M138.675,111.012a6.005,6.005,0,1,1-6.005-6.005,6.005,6.005,0,0,1,6.005,6.005m-2.181,0a3.825,3.825,0,1,0-3.824,3.825,3.824,3.824,0,0,0,3.824-3.825" transform="translate(-97.645 -80.949)" fill="#1e535a"/>
      </g>
    </g>
  </g>
</svg>
