<svg xmlns="http://www.w3.org/2000/svg" width="400" height="429.92" viewBox="0 0 400 429.92">
  <g id="Grupo_1217475" data-name="Grupo 1217475" transform="translate(-9209.289 7387.307)">
    <g id="Grupo_1216508" data-name="Grupo 1216508" transform="translate(17766 -490.72)">
      <path id="Trazado_1288067" data-name="Trazado 1288067" d="M0,0H400V429.92H0Z" transform="translate(-8556.711 -6896.587)" fill="#dfefff"/>
      <g id="Grupo_1216205" data-name="Grupo 1216205" transform="translate(-13224.711 4085.413)">
        <g id="Grupo_1216204" data-name="Grupo 1216204" transform="translate(4070.5 -11712.713)">
          <path id="Trazado_1291921" data-name="Trazado 1291921" d="M17,0H257.086a17,17,0,0,1,17,17V27a17,17,0,0,1-17,17H17A17,17,0,0,1,0,27V17A17,17,0,0,1,17,0Z" transform="translate(660.211 848.713)" fill="#fbb03f"/>
          <path id="Trazado_1291922" data-name="Trazado 1291922" d="M17,0H255.594a17,17,0,0,1,17,17V36a17,17,0,0,1-17,17H17A17,17,0,0,1,0,36V17A17,17,0,0,1,17,0Z" transform="translate(661.211 756.246)" fill="#1e535a"/>
          <path id="Trazado_1291923" data-name="Trazado 1291923" d="M17,0h89a17,17,0,0,1,17,17V49.188a17,17,0,0,1-17,17H17a17,17,0,0,1-17-17V17A17,17,0,0,1,17,0Z" transform="translate(606.211 957.3)" fill="#ffde92"/>
          <path id="Trazado_1291924" data-name="Trazado 1291924" d="M17,0h89a17,17,0,0,1,17,17V49.188a17,17,0,0,1-17,17H17a17,17,0,0,1-17-17V17A17,17,0,0,1,17,0Z" transform="translate(606.211 1068.3)" fill="#4dd0e1"/>
          <path id="Trazado_1291925" data-name="Trazado 1291925" d="M17,0h85a17,17,0,0,1,17,17V49a17,17,0,0,1-17,17H17A17,17,0,0,1,0,49V17A17,17,0,0,1,17,0Z" transform="translate(737.5 957.713)" fill="#ffde92"/>
          <path id="Trazado_1291926" data-name="Trazado 1291926" d="M17,0h85a17,17,0,0,1,17,17V49a17,17,0,0,1-17,17H17A17,17,0,0,1,0,49V17A17,17,0,0,1,17,0Z" transform="translate(737.5 1068.713)" fill="#4dd0e1"/>
          <path id="Trazado_1291927" data-name="Trazado 1291927" d="M8.188-3.617h1.5a4.784,4.784,0,0,1-.617,1.93A3.581,3.581,0,0,1,7.656-.34a4.739,4.739,0,0,1-2.281.5A4.3,4.3,0,0,1,3.559-.219a4.014,4.014,0,0,1-1.4-1.066,4.871,4.871,0,0,1-.9-1.664A6.984,6.984,0,0,1,.938-5.117V-6.25a6.984,6.984,0,0,1,.316-2.168,4.8,4.8,0,0,1,.914-1.668,4.041,4.041,0,0,1,1.441-1.07,4.626,4.626,0,0,1,1.9-.375,4.51,4.51,0,0,1,2.18.484,3.5,3.5,0,0,1,1.387,1.34,4.915,4.915,0,0,1,.613,1.98h-1.5A4.225,4.225,0,0,0,7.781-9.1a2.117,2.117,0,0,0-.844-.887,2.865,2.865,0,0,0-1.43-.312,2.925,2.925,0,0,0-1.332.289,2.647,2.647,0,0,0-.961.82,3.771,3.771,0,0,0-.582,1.273,6.476,6.476,0,0,0-.2,1.648v1.148a6.731,6.731,0,0,0,.176,1.57,4.11,4.11,0,0,0,.535,1.289,2.633,2.633,0,0,0,.914.871,2.605,2.605,0,0,0,1.313.316,3.263,3.263,0,0,0,1.531-.3A2.015,2.015,0,0,0,7.77-2.25,4.518,4.518,0,0,0,8.188-3.617Zm2.985-.516v-.18a5.27,5.27,0,0,1,.266-1.7A4.078,4.078,0,0,1,12.2-7.379a3.479,3.479,0,0,1,1.211-.906,3.8,3.8,0,0,1,1.594-.324,3.844,3.844,0,0,1,1.605.324,3.508,3.508,0,0,1,1.219.906,4.042,4.042,0,0,1,.77,1.367,5.27,5.27,0,0,1,.266,1.7v.18a5.235,5.235,0,0,1-.266,1.7,4.049,4.049,0,0,1-.77,1.363,3.527,3.527,0,0,1-1.211.906,3.791,3.791,0,0,1-1.6.324,3.817,3.817,0,0,1-1.6-.324,3.517,3.517,0,0,1-1.215-.906,4.049,4.049,0,0,1-.77-1.363A5.235,5.235,0,0,1,11.173-4.133Zm1.445-.18v.18a4.623,4.623,0,0,0,.148,1.191,3.091,3.091,0,0,0,.449.988,2.18,2.18,0,0,0,.754.676,2.176,2.176,0,0,0,1.055.246,2.136,2.136,0,0,0,1.043-.246,2.156,2.156,0,0,0,.746-.676,3.208,3.208,0,0,0,.449-.988,4.511,4.511,0,0,0,.152-1.191v-.18A4.481,4.481,0,0,0,17.263-5.5a3.2,3.2,0,0,0-.453-.992,2.214,2.214,0,0,0-.75-.684,2.126,2.126,0,0,0-1.051-.25,2.109,2.109,0,0,0-1.043.25,2.214,2.214,0,0,0-.75.684,3.138,3.138,0,0,0-.449.992A4.592,4.592,0,0,0,12.618-4.312Zm9.548-2.336V0H20.721V-8.453h1.367Zm-.344,2.1-.6-.023a5.122,5.122,0,0,1,.258-1.605,4,4,0,0,1,.7-1.285,3.164,3.164,0,0,1,1.082-.848,3.19,3.19,0,0,1,1.395-.3,3.521,3.521,0,0,1,1.125.168,2.1,2.1,0,0,1,.855.535,2.4,2.4,0,0,1,.543.949,4.666,4.666,0,0,1,.188,1.418V0H25.916V-5.555a2.461,2.461,0,0,0-.2-1.066,1.223,1.223,0,0,0-.57-.586,2.085,2.085,0,0,0-.922-.184,2.115,2.115,0,0,0-.98.227,2.3,2.3,0,0,0-.758.625,3.036,3.036,0,0,0-.492.91A3.307,3.307,0,0,0,21.822-4.547ZM33.136-8.453v1.109h-4.57V-8.453Zm-3.023-2.055h1.445v8.414a1.269,1.269,0,0,0,.133.648.635.635,0,0,0,.344.289,1.424,1.424,0,0,0,.453.07,2.183,2.183,0,0,0,.379-.035q.2-.035.3-.059L33.175,0a3.772,3.772,0,0,1-.449.105,3.771,3.771,0,0,1-.668.051,2.252,2.252,0,0,1-.977-.211,1.548,1.548,0,0,1-.707-.707,2.889,2.889,0,0,1-.262-1.34Zm6.2,3.383V0H34.871V-8.453h1.406ZM38.957-8.5l-.008,1.344a2.444,2.444,0,0,0-.34-.051q-.16-.012-.363-.012a2.322,2.322,0,0,0-.883.156,1.829,1.829,0,0,0-.648.438,2.061,2.061,0,0,0-.418.668,3.181,3.181,0,0,0-.2.848l-.406.234a6.49,6.49,0,0,1,.152-1.437A3.892,3.892,0,0,1,36.316-7.5a2.366,2.366,0,0,1,.816-.812,2.286,2.286,0,0,1,1.184-.293,2.136,2.136,0,0,1,.359.035A1.14,1.14,0,0,1,38.957-8.5Zm.837,4.367v-.18a5.27,5.27,0,0,1,.266-1.7,4.078,4.078,0,0,1,.766-1.367,3.479,3.479,0,0,1,1.211-.906,3.8,3.8,0,0,1,1.594-.324,3.844,3.844,0,0,1,1.605.324,3.508,3.508,0,0,1,1.219.906,4.042,4.042,0,0,1,.77,1.367,5.27,5.27,0,0,1,.266,1.7v.18a5.235,5.235,0,0,1-.266,1.7,4.049,4.049,0,0,1-.77,1.363,3.527,3.527,0,0,1-1.211.906,3.791,3.791,0,0,1-1.6.324,3.817,3.817,0,0,1-1.6-.324,3.517,3.517,0,0,1-1.215-.906,4.049,4.049,0,0,1-.77-1.363A5.235,5.235,0,0,1,39.794-4.133Zm1.445-.18v.18a4.623,4.623,0,0,0,.148,1.191,3.091,3.091,0,0,0,.449.988,2.18,2.18,0,0,0,.754.676,2.176,2.176,0,0,0,1.055.246,2.136,2.136,0,0,0,1.043-.246,2.156,2.156,0,0,0,.746-.676,3.207,3.207,0,0,0,.449-.988,4.511,4.511,0,0,0,.152-1.191v-.18A4.48,4.48,0,0,0,45.884-5.5a3.2,3.2,0,0,0-.453-.992,2.214,2.214,0,0,0-.75-.684,2.126,2.126,0,0,0-1.051-.25,2.109,2.109,0,0,0-1.043.25,2.214,2.214,0,0,0-.75.684,3.138,3.138,0,0,0-.449.992A4.592,4.592,0,0,0,41.239-4.312ZM50.912-12V0H49.459V-12Zm3.931,0V0H53.389V-12ZM60.711.156a4.082,4.082,0,0,1-1.6-.3,3.535,3.535,0,0,1-1.227-.848,3.756,3.756,0,0,1-.785-1.3,4.756,4.756,0,0,1-.273-1.641v-.328a5.192,5.192,0,0,1,.3-1.84,4.115,4.115,0,0,1,.828-1.371,3.547,3.547,0,0,1,1.188-.852,3.411,3.411,0,0,1,1.375-.289A3.63,3.63,0,0,1,62.09-8.3a2.871,2.871,0,0,1,1.082.871A3.786,3.786,0,0,1,63.8-6.113,6.308,6.308,0,0,1,64-4.469v.648H57.687V-5h4.867v-.109a3.679,3.679,0,0,0-.23-1.094,2,2,0,0,0-.629-.875,1.825,1.825,0,0,0-1.172-.344,2,2,0,0,0-.906.207,1.966,1.966,0,0,0-.711.613,3.068,3.068,0,0,0-.461.992,5.029,5.029,0,0,0-.164,1.352v.328A3.7,3.7,0,0,0,58.449-2.8a2.793,2.793,0,0,0,.492.926,2.309,2.309,0,0,0,.789.625,2.386,2.386,0,0,0,1.059.227,2.517,2.517,0,0,0,1.3-.312,3.211,3.211,0,0,0,.93-.836l.875.7a4.044,4.044,0,0,1-.7.789,3.327,3.327,0,0,1-1.035.609A4.055,4.055,0,0,1,60.711.156Zm6.462-7.281V0H65.727V-8.453h1.406ZM69.813-8.5l-.008,1.344a2.444,2.444,0,0,0-.34-.051q-.16-.012-.363-.012a2.322,2.322,0,0,0-.883.156,1.829,1.829,0,0,0-.648.438,2.061,2.061,0,0,0-.418.668,3.181,3.181,0,0,0-.2.848l-.406.234A6.49,6.49,0,0,1,66.7-6.312,3.892,3.892,0,0,1,67.173-7.5a2.366,2.366,0,0,1,.816-.812,2.286,2.286,0,0,1,1.184-.293,2.136,2.136,0,0,1,.359.035A1.141,1.141,0,0,1,69.813-8.5Z" transform="translate(762.211 874.713)" fill="#12263f"/>
          <path id="Trazado_1291928" data-name="Trazado 1291928" d="M-21.71-4.055h-2.9V-5.883h2.9a2.339,2.339,0,0,0,1.094-.223A1.382,1.382,0,0,0-20-6.727a2.014,2.014,0,0,0,.2-.9A2.292,2.292,0,0,0-20-8.57a1.578,1.578,0,0,0-.617-.7,2.025,2.025,0,0,0-1.094-.266H-23.8V0H-26.14V-11.375h4.43a5.06,5.06,0,0,1,2.293.48A3.486,3.486,0,0,1-17.952-9.57a3.668,3.668,0,0,1,.508,1.93,3.5,3.5,0,0,1-.508,1.906,3.3,3.3,0,0,1-1.465,1.242A5.483,5.483,0,0,1-21.71-4.055ZM-13.553-12V0H-15.81V-12Zm6.9,9.977v-6.43H-4.4V0H-6.52Zm.25-1.734.664-.016a5.988,5.988,0,0,1-.2,1.566A3.7,3.7,0,0,1-6.52-.957a2.686,2.686,0,0,1-.984.82A3.127,3.127,0,0,1-8.9.156,3.527,3.527,0,0,1-10.04-.02a2.225,2.225,0,0,1-.891-.555,2.575,2.575,0,0,1-.578-.977,4.426,4.426,0,0,1-.207-1.441V-8.453h2.25v5.477a1.938,1.938,0,0,0,.09.633,1.1,1.1,0,0,0,.254.422.939.939,0,0,0,.387.234,1.643,1.643,0,0,0,.5.07,1.887,1.887,0,0,0,1.1-.281,1.511,1.511,0,0,0,.57-.77A3.335,3.335,0,0,0-6.4-3.758Zm9.1-4.7H4.738V-.281a3.6,3.6,0,0,1-.512,1.965A3.236,3.236,0,0,1,2.8,2.91a5.064,5.064,0,0,1-2.125.418A4.838,4.838,0,0,1-.445,3.188,4.424,4.424,0,0,1-1.57,2.75,2.957,2.957,0,0,1-2.465,2L-1.473.672a2.852,2.852,0,0,0,.906.707,2.547,2.547,0,0,0,1.141.254A2.187,2.187,0,0,0,1.605,1.41,1.528,1.528,0,0,0,2.254.762,2.161,2.161,0,0,0,2.48-.266V-6.5ZM-2.988-4.125v-.164A6.108,6.108,0,0,1-2.75-6.051a4.157,4.157,0,0,1,.68-1.363A3.054,3.054,0,0,1-1-8.3a3.186,3.186,0,0,1,1.43-.312A2.912,2.912,0,0,1,1.848-8.3a2.566,2.566,0,0,1,.938.887,4.773,4.773,0,0,1,.574,1.352,12.97,12.97,0,0,1,.324,1.7V-4a10.008,10.008,0,0,1-.352,1.641,4.975,4.975,0,0,1-.617,1.324,2.728,2.728,0,0,1-.949.879A2.749,2.749,0,0,1,.418.156a3.062,3.062,0,0,1-1.41-.32,3.147,3.147,0,0,1-1.074-.9A4.222,4.222,0,0,1-2.75-2.422,5.815,5.815,0,0,1-2.988-4.125Zm2.25-.164v.164a4.46,4.46,0,0,0,.1.977,2.587,2.587,0,0,0,.316.8,1.57,1.57,0,0,0,.539.539,1.487,1.487,0,0,0,.77.191A1.777,1.777,0,0,0,2-1.879,1.6,1.6,0,0,0,2.582-2.6a3.126,3.126,0,0,0,.227-1.062V-4.687a3.505,3.505,0,0,0-.133-.887,2.122,2.122,0,0,0-.328-.676A1.418,1.418,0,0,0,1.8-6.687,1.875,1.875,0,0,0,1-6.844a1.441,1.441,0,0,0-.77.2A1.653,1.653,0,0,0-.3-6.1a2.668,2.668,0,0,0-.324.809A4.377,4.377,0,0,0-.738-4.289ZM8.9-8.453V0H6.645V-8.453Zm-2.4-2.2a1.062,1.062,0,0,1,.344-.812,1.3,1.3,0,0,1,.922-.32,1.3,1.3,0,0,1,.918.32,1.057,1.057,0,0,1,.348.813,1.057,1.057,0,0,1-.348.813,1.3,1.3,0,0,1-.918.32,1.3,1.3,0,0,1-.922-.32A1.062,1.062,0,0,1,6.5-10.656Zm6.5,4.008V0h-2.25V-8.453h2.109Zm-.328,2.125h-.609a5.516,5.516,0,0,1,.242-1.691A3.894,3.894,0,0,1,12.99-7.5a2.968,2.968,0,0,1,1.043-.82,3.142,3.142,0,0,1,1.355-.285,3.275,3.275,0,0,1,1.086.172,2.109,2.109,0,0,1,.848.547,2.487,2.487,0,0,1,.547.992,5.144,5.144,0,0,1,.191,1.508V0H15.795V-5.4a1.993,1.993,0,0,0-.156-.875.9.9,0,0,0-.457-.441,1.875,1.875,0,0,0-.738-.129,1.626,1.626,0,0,0-.785.18,1.537,1.537,0,0,0-.547.5,2.354,2.354,0,0,0-.324.738A3.6,3.6,0,0,0,12.678-4.523Zm11.7,2.188a.731.731,0,0,0-.141-.437,1.259,1.259,0,0,0-.52-.363,5.4,5.4,0,0,0-1.09-.309A7.991,7.991,0,0,1,21.44-3.8a3.942,3.942,0,0,1-.953-.52,2.243,2.243,0,0,1-.629-.723A1.976,1.976,0,0,1,19.632-6a2.236,2.236,0,0,1,.23-1,2.55,2.55,0,0,1,.664-.832,3.184,3.184,0,0,1,1.063-.57,4.523,4.523,0,0,1,1.418-.207,4.651,4.651,0,0,1,1.895.352,2.839,2.839,0,0,1,1.219.965A2.386,2.386,0,0,1,26.546-5.9H24.3a1.255,1.255,0,0,0-.137-.59.982.982,0,0,0-.422-.414A1.562,1.562,0,0,0,23-7.055a1.508,1.508,0,0,0-.648.129,1,1,0,0,0-.418.344.829.829,0,0,0-.145.473.722.722,0,0,0,.082.348.8.8,0,0,0,.27.277,2.2,2.2,0,0,0,.488.23,5.375,5.375,0,0,0,.746.191,8.831,8.831,0,0,1,1.633.488,2.888,2.888,0,0,1,1.141.813,2.038,2.038,0,0,1,.422,1.34,2.157,2.157,0,0,1-.25,1.031,2.451,2.451,0,0,1-.719.816,3.533,3.533,0,0,1-1.121.539,5.2,5.2,0,0,1-1.465.191,4.309,4.309,0,0,1-2-.422A3.123,3.123,0,0,1,19.784-1.34a2.454,2.454,0,0,1-.418-1.34H21.5a1.231,1.231,0,0,0,.238.742,1.252,1.252,0,0,0,.57.406,2.212,2.212,0,0,0,.754.125,1.89,1.89,0,0,0,.727-.121,1.021,1.021,0,0,0,.441-.328A.789.789,0,0,0,24.382-2.336Z" transform="translate(797.211 788.246)" fill="#fff"/>
          <path id="Trazado_1291929" data-name="Trazado 1291929" d="M5.531-10.367,1.766,0H.227L4.563-11.375h.992ZM8.688,0,4.914-10.367l-.023-1.008h.992L10.234,0Zm-.2-4.211v1.234H2.1V-4.211Zm8.563-4.242h1.313V-.18a3.769,3.769,0,0,1-.453,1.906,2.981,2.981,0,0,1-1.262,1.2,4.064,4.064,0,0,1-1.863.41A4.637,4.637,0,0,1,13.763,3.2a4.258,4.258,0,0,1-1.156-.461,2.916,2.916,0,0,1-.949-.871l.758-.859a3.045,3.045,0,0,0,1.113.891,2.9,2.9,0,0,0,1.152.25,2.56,2.56,0,0,0,1.188-.258,1.827,1.827,0,0,0,.777-.762,2.538,2.538,0,0,0,.277-1.238V-6.594Zm-5.82,4.32V-4.3a6.3,6.3,0,0,1,.23-1.762,4.134,4.134,0,0,1,.664-1.363A2.985,2.985,0,0,1,13.181-8.3a3.067,3.067,0,0,1,1.391-.309,3.283,3.283,0,0,1,1.395.277,2.768,2.768,0,0,1,1.016.8,4.04,4.04,0,0,1,.66,1.27,7.985,7.985,0,0,1,.336,1.68v.719a7.513,7.513,0,0,1-.332,1.672,4.049,4.049,0,0,1-.664,1.266,2.776,2.776,0,0,1-1.02.8,3.329,3.329,0,0,1-1.406.277,2.916,2.916,0,0,1-1.371-.32,3.119,3.119,0,0,1-1.051-.9,4.191,4.191,0,0,1-.668-1.363A6.039,6.039,0,0,1,11.235-4.133ZM12.681-4.3v.164a5.236,5.236,0,0,0,.129,1.188,3.1,3.1,0,0,0,.4.977,1.95,1.95,0,0,0,.691.66,2.017,2.017,0,0,0,1.008.238,2.139,2.139,0,0,0,1.188-.3,2.238,2.238,0,0,0,.746-.8,4.754,4.754,0,0,0,.434-1.086V-5.148a4.063,4.063,0,0,0-.262-.832A2.756,2.756,0,0,0,16.56-6.7a2.023,2.023,0,0,0-.684-.5,2.255,2.255,0,0,0-.953-.187,2,2,0,0,0-1.02.246,2,2,0,0,0-.7.672,3.149,3.149,0,0,0-.4.984A5.288,5.288,0,0,0,12.681-4.3ZM24.111.156a4.082,4.082,0,0,1-1.6-.3,3.535,3.535,0,0,1-1.227-.848,3.756,3.756,0,0,1-.785-1.3,4.756,4.756,0,0,1-.273-1.641v-.328a5.192,5.192,0,0,1,.3-1.84,4.115,4.115,0,0,1,.828-1.371,3.547,3.547,0,0,1,1.188-.852,3.411,3.411,0,0,1,1.375-.289A3.63,3.63,0,0,1,25.49-8.3a2.871,2.871,0,0,1,1.082.871A3.786,3.786,0,0,1,27.2-6.113a6.308,6.308,0,0,1,.2,1.645v.648H21.088V-5h4.867v-.109a3.679,3.679,0,0,0-.23-1.094,2,2,0,0,0-.629-.875,1.825,1.825,0,0,0-1.172-.344,2,2,0,0,0-.906.207,1.966,1.966,0,0,0-.711.613,3.068,3.068,0,0,0-.461.992,5.029,5.029,0,0,0-.164,1.352v.328A3.7,3.7,0,0,0,21.85-2.8a2.793,2.793,0,0,0,.492.926,2.309,2.309,0,0,0,.789.625,2.386,2.386,0,0,0,1.059.227,2.517,2.517,0,0,0,1.3-.312,3.211,3.211,0,0,0,.93-.836l.875.7a4.044,4.044,0,0,1-.7.789,3.327,3.327,0,0,1-1.035.609A4.055,4.055,0,0,1,24.111.156Zm6.462-6.8V0H29.128V-8.453h1.367Zm-.344,2.1-.6-.023a5.122,5.122,0,0,1,.258-1.605,4,4,0,0,1,.7-1.285,3.164,3.164,0,0,1,1.082-.848,3.19,3.19,0,0,1,1.395-.3,3.521,3.521,0,0,1,1.125.168,2.1,2.1,0,0,1,.855.535,2.4,2.4,0,0,1,.543.949,4.666,4.666,0,0,1,.188,1.418V0H34.323V-5.555a2.461,2.461,0,0,0-.2-1.066,1.223,1.223,0,0,0-.57-.586,2.085,2.085,0,0,0-.922-.184,2.115,2.115,0,0,0-.98.227,2.3,2.3,0,0,0-.758.625,3.036,3.036,0,0,0-.492.91A3.307,3.307,0,0,0,30.229-4.547ZM41.543-8.453v1.109h-4.57V-8.453Zm-3.023-2.055h1.445v8.414a1.269,1.269,0,0,0,.133.648.635.635,0,0,0,.344.289,1.424,1.424,0,0,0,.453.07,2.183,2.183,0,0,0,.379-.035q.2-.035.3-.059L41.582,0a3.772,3.772,0,0,1-.449.105,3.771,3.771,0,0,1-.668.051,2.252,2.252,0,0,1-.977-.211,1.548,1.548,0,0,1-.707-.707,2.889,2.889,0,0,1-.262-1.34Z" transform="translate(647.001 996.3)" fill="#12263f"/>
          <path id="Trazado_1291930" data-name="Trazado 1291930" d="M8.188-3.617h1.5a4.784,4.784,0,0,1-.617,1.93A3.581,3.581,0,0,1,7.656-.34a4.739,4.739,0,0,1-2.281.5A4.3,4.3,0,0,1,3.559-.219a4.014,4.014,0,0,1-1.4-1.066,4.871,4.871,0,0,1-.9-1.664A6.984,6.984,0,0,1,.938-5.117V-6.25a6.984,6.984,0,0,1,.316-2.168,4.8,4.8,0,0,1,.914-1.668,4.041,4.041,0,0,1,1.441-1.07,4.626,4.626,0,0,1,1.9-.375,4.51,4.51,0,0,1,2.18.484,3.5,3.5,0,0,1,1.387,1.34,4.915,4.915,0,0,1,.613,1.98h-1.5A4.225,4.225,0,0,0,7.781-9.1a2.117,2.117,0,0,0-.844-.887,2.865,2.865,0,0,0-1.43-.312,2.925,2.925,0,0,0-1.332.289,2.647,2.647,0,0,0-.961.82,3.771,3.771,0,0,0-.582,1.273,6.476,6.476,0,0,0-.2,1.648v1.148a6.731,6.731,0,0,0,.176,1.57,4.11,4.11,0,0,0,.535,1.289,2.633,2.633,0,0,0,.914.871,2.605,2.605,0,0,0,1.313.316,3.263,3.263,0,0,0,1.531-.3A2.015,2.015,0,0,0,7.77-2.25,4.518,4.518,0,0,0,8.188-3.617Zm2.985-.516v-.18a5.27,5.27,0,0,1,.266-1.7A4.078,4.078,0,0,1,12.2-7.379a3.479,3.479,0,0,1,1.211-.906,3.8,3.8,0,0,1,1.594-.324,3.844,3.844,0,0,1,1.605.324,3.508,3.508,0,0,1,1.219.906,4.042,4.042,0,0,1,.77,1.367,5.27,5.27,0,0,1,.266,1.7v.18a5.235,5.235,0,0,1-.266,1.7,4.049,4.049,0,0,1-.77,1.363,3.527,3.527,0,0,1-1.211.906,3.791,3.791,0,0,1-1.6.324,3.817,3.817,0,0,1-1.6-.324,3.517,3.517,0,0,1-1.215-.906,4.049,4.049,0,0,1-.77-1.363A5.235,5.235,0,0,1,11.173-4.133Zm1.445-.18v.18a4.623,4.623,0,0,0,.148,1.191,3.091,3.091,0,0,0,.449.988,2.18,2.18,0,0,0,.754.676,2.176,2.176,0,0,0,1.055.246,2.136,2.136,0,0,0,1.043-.246,2.156,2.156,0,0,0,.746-.676,3.208,3.208,0,0,0,.449-.988,4.511,4.511,0,0,0,.152-1.191v-.18A4.481,4.481,0,0,0,17.263-5.5a3.2,3.2,0,0,0-.453-.992,2.214,2.214,0,0,0-.75-.684,2.126,2.126,0,0,0-1.051-.25,2.109,2.109,0,0,0-1.043.25,2.214,2.214,0,0,0-.75.684,3.138,3.138,0,0,0-.449.992A4.592,4.592,0,0,0,12.618-4.312Zm9.54-2.461V0H20.7V-8.453H22.08Zm-.3,2.227-.672-.023a5.817,5.817,0,0,1,.227-1.605,3.805,3.805,0,0,1,.648-1.285,2.918,2.918,0,0,1,1.07-.848,3.457,3.457,0,0,1,1.484-.3,3.416,3.416,0,0,1,1.094.168,2.244,2.244,0,0,1,.867.527,2.412,2.412,0,0,1,.57.922,4.019,4.019,0,0,1,.2,1.359V0H25.908V-5.562a2.177,2.177,0,0,0-.223-1.062,1.335,1.335,0,0,0-.629-.582,2.3,2.3,0,0,0-.953-.184,2.277,2.277,0,0,0-1.07.227,1.808,1.808,0,0,0-.687.625,2.756,2.756,0,0,0-.371.91A5,5,0,0,0,21.861-4.547Zm5.477-.8-.969.3a4.185,4.185,0,0,1,.23-1.336,3.528,3.528,0,0,1,.648-1.141A3.073,3.073,0,0,1,28.3-8.316a3.331,3.331,0,0,1,1.43-.293,3.736,3.736,0,0,1,1.207.18,2.232,2.232,0,0,1,.891.551,2.381,2.381,0,0,1,.551.949,4.477,4.477,0,0,1,.188,1.375V0H31.111V-5.57a2.269,2.269,0,0,0-.223-1.105,1.222,1.222,0,0,0-.625-.555,2.584,2.584,0,0,0-.957-.16,2.049,2.049,0,0,0-.844.164,1.767,1.767,0,0,0-.617.449,1.968,1.968,0,0,0-.379.652A2.342,2.342,0,0,0,27.338-5.344Zm8.9-1.484V3.25H34.784v-11.7h1.328Zm5.7,2.531v.164a6.342,6.342,0,0,1-.219,1.707,4.251,4.251,0,0,1-.637,1.363,2.949,2.949,0,0,1-1.027.9,2.961,2.961,0,0,1-1.4.32,3.569,3.569,0,0,1-1.422-.266,2.8,2.8,0,0,1-1.047-.773A3.891,3.891,0,0,1,35.5-2.1a6.912,6.912,0,0,1-.348-1.6v-.875a7.35,7.35,0,0,1,.352-1.68,4.187,4.187,0,0,1,.684-1.27,2.811,2.811,0,0,1,1.035-.8,3.363,3.363,0,0,1,1.406-.277,3.12,3.12,0,0,1,1.414.309,2.882,2.882,0,0,1,1.039.879,4.046,4.046,0,0,1,.637,1.363A6.732,6.732,0,0,1,41.932-4.3Zm-1.453.164V-4.3a5.139,5.139,0,0,0-.133-1.191,3.1,3.1,0,0,0-.41-.984,2.052,2.052,0,0,0-.707-.672,2.026,2.026,0,0,0-1.023-.246,2.229,2.229,0,0,0-.949.188,2.075,2.075,0,0,0-.684.5,2.7,2.7,0,0,0-.457.719,4.062,4.062,0,0,0-.262.832v2.023A4.438,4.438,0,0,0,36.292-2.1a2.222,2.222,0,0,0,.75.773,2.189,2.189,0,0,0,1.18.293,1.988,1.988,0,0,0,1.012-.246,2.051,2.051,0,0,0,.7-.676,3.15,3.15,0,0,0,.41-.988A5.139,5.139,0,0,0,40.479-4.133Zm4.907-4.32V0H43.933V-8.453ZM43.824-10.7a.863.863,0,0,1,.215-.594.807.807,0,0,1,.637-.242.822.822,0,0,1,.637.242.845.845,0,0,1,.223.594.811.811,0,0,1-.223.574.829.829,0,0,1-.637.238.814.814,0,0,1-.637-.238A.828.828,0,0,1,43.824-10.7ZM49.317-12V0H47.864V-12ZM56.662-1.445V-5.8a1.815,1.815,0,0,0-.2-.871,1.357,1.357,0,0,0-.6-.574,2.152,2.152,0,0,0-.984-.2,2.282,2.282,0,0,0-.957.188,1.635,1.635,0,0,0-.641.492,1.067,1.067,0,0,0-.23.656H51.607a1.912,1.912,0,0,1,.234-.9,2.649,2.649,0,0,1,.676-.809,3.405,3.405,0,0,1,1.063-.578,4.223,4.223,0,0,1,1.387-.215A4,4,0,0,1,56.6-8.3a2.469,2.469,0,0,1,1.109.941,2.867,2.867,0,0,1,.4,1.574v3.938a5.852,5.852,0,0,0,.074.9,3.394,3.394,0,0,0,.223.82V0H56.9a2.7,2.7,0,0,1-.172-.668A5.277,5.277,0,0,1,56.662-1.445Zm.25-3.68.016,1.016H55.467a5.606,5.606,0,0,0-1.1.1,2.582,2.582,0,0,0-.812.293,1.385,1.385,0,0,0-.5.488,1.326,1.326,0,0,0-.172.684,1.488,1.488,0,0,0,.18.727,1.278,1.278,0,0,0,.543.52,1.9,1.9,0,0,0,.895.191,2.379,2.379,0,0,0,1.172-.281,2.481,2.481,0,0,0,.809-.687,1.493,1.493,0,0,0,.324-.789l.617.7a2.1,2.1,0,0,1-.3.727,3.447,3.447,0,0,1-.645.762,3.455,3.455,0,0,1-.953.6,3.089,3.089,0,0,1-1.238.238,3.21,3.21,0,0,1-1.5-.336,2.531,2.531,0,0,1-1-.9,2.339,2.339,0,0,1-.355-1.27,2.6,2.6,0,0,1,.266-1.2,2.347,2.347,0,0,1,.766-.867,3.688,3.688,0,0,1,1.2-.527,6.347,6.347,0,0,1,1.57-.18ZM63.8-1.031a2.166,2.166,0,0,0,.953-.211,1.947,1.947,0,0,0,.719-.582,1.589,1.589,0,0,0,.32-.848h1.375a2.574,2.574,0,0,1-.5,1.395A3.45,3.45,0,0,1,65.452-.238,3.486,3.486,0,0,1,63.8.156a3.832,3.832,0,0,1-1.66-.336A3.253,3.253,0,0,1,60.971-1.1a4.015,4.015,0,0,1-.7-1.348,5.542,5.542,0,0,1-.23-1.613v-.328A5.542,5.542,0,0,1,60.276-6a4.015,4.015,0,0,1,.7-1.348,3.253,3.253,0,0,1,1.172-.922,3.832,3.832,0,0,1,1.66-.336,3.584,3.584,0,0,1,1.734.4,3.049,3.049,0,0,1,1.168,1.094,3.208,3.208,0,0,1,.465,1.566H65.8a2.11,2.11,0,0,0-.293-.945,1.922,1.922,0,0,0-.687-.676A1.965,1.965,0,0,0,63.8-7.422a2.181,2.181,0,0,0-1.113.262,1.958,1.958,0,0,0-.711.7,3.2,3.2,0,0,0-.375.977,5.248,5.248,0,0,0-.113,1.09v.328A5.486,5.486,0,0,0,61.6-2.969a3.079,3.079,0,0,0,.371.977,1.968,1.968,0,0,0,.711.7A2.2,2.2,0,0,0,63.8-1.031Zm6.6-7.422V0H68.953V-8.453ZM68.843-10.7a.863.863,0,0,1,.215-.594.807.807,0,0,1,.637-.242.822.822,0,0,1,.637.242.845.845,0,0,1,.223.594.811.811,0,0,1-.223.574.829.829,0,0,1-.637.238.814.814,0,0,1-.637-.238A.828.828,0,0,1,68.843-10.7Zm3.54,6.563v-.18a5.27,5.27,0,0,1,.266-1.7,4.078,4.078,0,0,1,.766-1.367,3.479,3.479,0,0,1,1.211-.906,3.8,3.8,0,0,1,1.594-.324,3.844,3.844,0,0,1,1.605.324,3.508,3.508,0,0,1,1.219.906,4.042,4.042,0,0,1,.77,1.367,5.27,5.27,0,0,1,.266,1.7v.18a5.235,5.235,0,0,1-.266,1.7,4.049,4.049,0,0,1-.77,1.363,3.527,3.527,0,0,1-1.211.906,3.791,3.791,0,0,1-1.6.324,3.817,3.817,0,0,1-1.6-.324,3.517,3.517,0,0,1-1.215-.906,4.049,4.049,0,0,1-.77-1.363A5.235,5.235,0,0,1,72.383-4.133Zm1.445-.18v.18a4.623,4.623,0,0,0,.148,1.191,3.091,3.091,0,0,0,.449.988,2.18,2.18,0,0,0,.754.676,2.176,2.176,0,0,0,1.055.246,2.136,2.136,0,0,0,1.043-.246,2.156,2.156,0,0,0,.746-.676,3.208,3.208,0,0,0,.449-.988,4.511,4.511,0,0,0,.152-1.191v-.18A4.48,4.48,0,0,0,78.473-5.5a3.2,3.2,0,0,0-.453-.992,2.214,2.214,0,0,0-.75-.684,2.126,2.126,0,0,0-1.051-.25,2.109,2.109,0,0,0-1.043.25,2.214,2.214,0,0,0-.75.684,3.138,3.138,0,0,0-.449.992A4.591,4.591,0,0,0,73.829-4.312ZM75.36-9.7,76.876-12h1.742L76.524-9.7Zm8.017,3.055V0H81.931V-8.453H83.3Zm-.344,2.1-.6-.023a5.122,5.122,0,0,1,.258-1.605,4,4,0,0,1,.7-1.285,3.164,3.164,0,0,1,1.082-.848,3.19,3.19,0,0,1,1.395-.3,3.521,3.521,0,0,1,1.125.168,2.1,2.1,0,0,1,.855.535,2.4,2.4,0,0,1,.543.949,4.666,4.666,0,0,1,.188,1.418V0H87.127V-5.555a2.461,2.461,0,0,0-.2-1.066,1.223,1.223,0,0,0-.57-.586,2.085,2.085,0,0,0-.922-.184,2.115,2.115,0,0,0-.98.227,2.3,2.3,0,0,0-.758.625,3.036,3.036,0,0,0-.492.91A3.307,3.307,0,0,0,83.033-4.547Z" transform="translate(620.711 1107.3)" fill="#12263f"/>
          <path id="Trazado_1291931" data-name="Trazado 1291931" d="M-15.537-10.367-19.3,0h-1.539l4.336-11.375h.992ZM-12.381,0l-3.773-10.367-.023-1.008h.992L-10.834,0Zm-.2-4.211v1.234h-6.391V-4.211Zm8.563-4.242H-2.7V-.18a3.769,3.769,0,0,1-.453,1.906,2.981,2.981,0,0,1-1.262,1.2,4.064,4.064,0,0,1-1.863.41A4.637,4.637,0,0,1-7.306,3.2a4.258,4.258,0,0,1-1.156-.461,2.916,2.916,0,0,1-.949-.871l.758-.859A3.045,3.045,0,0,0-7.54,1.9a2.9,2.9,0,0,0,1.152.25A2.56,2.56,0,0,0-5.2,1.891a1.827,1.827,0,0,0,.777-.762A2.538,2.538,0,0,0-4.145-.109V-6.594Zm-5.82,4.32V-4.3A6.3,6.3,0,0,1-9.6-6.059a4.134,4.134,0,0,1,.664-1.363A2.985,2.985,0,0,1-7.888-8.3,3.067,3.067,0,0,1-6.5-8.609,3.283,3.283,0,0,1-5.1-8.332a2.768,2.768,0,0,1,1.016.8,4.04,4.04,0,0,1,.66,1.27,7.985,7.985,0,0,1,.336,1.68v.719a7.512,7.512,0,0,1-.332,1.672A4.049,4.049,0,0,1-4.087-.922a2.776,2.776,0,0,1-1.02.8A3.329,3.329,0,0,1-6.513.156a2.916,2.916,0,0,1-1.371-.32,3.119,3.119,0,0,1-1.051-.9A4.191,4.191,0,0,1-9.6-2.426,6.039,6.039,0,0,1-9.833-4.133ZM-8.388-4.3v.164a5.236,5.236,0,0,0,.129,1.188,3.1,3.1,0,0,0,.4.977,1.95,1.95,0,0,0,.691.66,2.017,2.017,0,0,0,1.008.238,2.139,2.139,0,0,0,1.188-.3,2.238,2.238,0,0,0,.746-.8,4.754,4.754,0,0,0,.434-1.086V-5.148a4.062,4.062,0,0,0-.262-.832A2.756,2.756,0,0,0-4.509-6.7a2.023,2.023,0,0,0-.684-.5,2.255,2.255,0,0,0-.953-.187,2,2,0,0,0-1.02.246,2,2,0,0,0-.7.672,3.149,3.149,0,0,0-.4.984A5.288,5.288,0,0,0-8.388-4.3ZM3.043.156a4.082,4.082,0,0,1-1.6-.3A3.535,3.535,0,0,1,.219-.992a3.756,3.756,0,0,1-.785-1.3A4.756,4.756,0,0,1-.84-3.93v-.328a5.192,5.192,0,0,1,.3-1.84A4.115,4.115,0,0,1,.293-7.469,3.547,3.547,0,0,1,1.48-8.32a3.411,3.411,0,0,1,1.375-.289A3.63,3.63,0,0,1,4.422-8.3,2.871,2.871,0,0,1,5.5-7.426a3.786,3.786,0,0,1,.625,1.313,6.308,6.308,0,0,1,.2,1.645v.648H.02V-5H4.887v-.109A3.679,3.679,0,0,0,4.656-6.2a2,2,0,0,0-.629-.875,1.825,1.825,0,0,0-1.172-.344,2,2,0,0,0-.906.207,1.966,1.966,0,0,0-.711.613,3.068,3.068,0,0,0-.461.992A5.029,5.029,0,0,0,.613-4.258v.328A3.7,3.7,0,0,0,.781-2.8a2.793,2.793,0,0,0,.492.926,2.309,2.309,0,0,0,.789.625,2.386,2.386,0,0,0,1.059.227,2.517,2.517,0,0,0,1.3-.312,3.211,3.211,0,0,0,.93-.836l.875.7a4.044,4.044,0,0,1-.7.789,3.327,3.327,0,0,1-1.035.609A4.055,4.055,0,0,1,3.043.156ZM9.5-6.648V0H8.06V-8.453H9.427Zm-.344,2.1-.6-.023a5.122,5.122,0,0,1,.258-1.605,4,4,0,0,1,.7-1.285A3.164,3.164,0,0,1,10.6-8.309,3.19,3.19,0,0,1,12-8.609a3.521,3.521,0,0,1,1.125.168,2.1,2.1,0,0,1,.855.535,2.4,2.4,0,0,1,.543.949,4.666,4.666,0,0,1,.188,1.418V0H13.255V-5.555a2.461,2.461,0,0,0-.2-1.066,1.223,1.223,0,0,0-.57-.586,2.085,2.085,0,0,0-.922-.184,2.115,2.115,0,0,0-.98.227,2.3,2.3,0,0,0-.758.625,3.036,3.036,0,0,0-.492.91A3.307,3.307,0,0,0,9.161-4.547ZM20.475-8.453v1.109H15.9V-8.453Zm-3.023-2.055H18.9v8.414a1.269,1.269,0,0,0,.133.648.635.635,0,0,0,.344.289,1.424,1.424,0,0,0,.453.07,2.183,2.183,0,0,0,.379-.035q.2-.035.3-.059L20.514,0a3.772,3.772,0,0,1-.449.105A3.771,3.771,0,0,1,19.4.156a2.252,2.252,0,0,1-.977-.211,1.548,1.548,0,0,1-.707-.707,2.889,2.889,0,0,1-.262-1.34Z" transform="translate(798.001 996.713)" fill="#12263f"/>
          <path id="Trazado_1291932" data-name="Trazado 1291932" d="M-23.987-4.461h-3.039V-5.687h3.039a3.13,3.13,0,0,0,1.43-.281,1.777,1.777,0,0,0,.8-.781A2.484,2.484,0,0,0-21.5-7.891a2.46,2.46,0,0,0-.254-1.1,1.952,1.952,0,0,0-.8-.832,2.836,2.836,0,0,0-1.43-.316h-2.687V0h-1.508V-11.375h4.2a4.838,4.838,0,0,1,2.18.445A3.156,3.156,0,0,1-20.456-9.7,3.475,3.475,0,0,1-20-7.906a3.584,3.584,0,0,1-.461,1.867,2.924,2.924,0,0,1-1.352,1.176A5.281,5.281,0,0,1-23.987-4.461Zm7.165-2.664V0h-1.445V-8.453h1.406ZM-14.182-8.5l-.008,1.344a2.444,2.444,0,0,0-.34-.051q-.16-.012-.363-.012a2.322,2.322,0,0,0-.883.156,1.829,1.829,0,0,0-.648.438,2.061,2.061,0,0,0-.418.668,3.181,3.181,0,0,0-.2.848l-.406.234a6.49,6.49,0,0,1,.152-1.437A3.892,3.892,0,0,1-16.822-7.5a2.366,2.366,0,0,1,.816-.812,2.286,2.286,0,0,1,1.184-.293,2.136,2.136,0,0,1,.359.035A1.14,1.14,0,0,1-14.182-8.5Zm6.548,6.547v-6.5h1.453V0H-7.563Zm.273-1.781.6-.016a6.52,6.52,0,0,1-.176,1.559A3.4,3.4,0,0,1-7.5-.953a2.628,2.628,0,0,1-1.023.816,3.647,3.647,0,0,1-1.539.293,3.388,3.388,0,0,1-1.129-.18,2.259,2.259,0,0,1-.879-.555,2.487,2.487,0,0,1-.566-.977A4.623,4.623,0,0,1-12.837-3V-8.453h1.445v5.469a2.911,2.911,0,0,0,.129.941,1.467,1.467,0,0,0,.352.586,1.245,1.245,0,0,0,.5.3,1.929,1.929,0,0,0,.574.086,2.625,2.625,0,0,0,1.461-.355A2,2,0,0,0-7.6-2.387,3.652,3.652,0,0,0-7.36-3.734ZM-.438.156a4.082,4.082,0,0,1-1.6-.3A3.535,3.535,0,0,1-3.262-.992a3.756,3.756,0,0,1-.785-1.3A4.756,4.756,0,0,1-4.32-3.93v-.328a5.192,5.192,0,0,1,.3-1.84,4.115,4.115,0,0,1,.828-1.371A3.547,3.547,0,0,1-2-8.32,3.411,3.411,0,0,1-.625-8.609,3.63,3.63,0,0,1,.941-8.3a2.871,2.871,0,0,1,1.082.871,3.786,3.786,0,0,1,.625,1.313,6.308,6.308,0,0,1,.2,1.645v.648H-3.461V-5H1.406v-.109A3.679,3.679,0,0,0,1.176-6.2a2,2,0,0,0-.629-.875A1.825,1.825,0,0,0-.625-7.422a2,2,0,0,0-.906.207,1.966,1.966,0,0,0-.711.613,3.068,3.068,0,0,0-.461.992,5.029,5.029,0,0,0-.164,1.352v.328A3.7,3.7,0,0,0-2.7-2.8a2.793,2.793,0,0,0,.492.926,2.309,2.309,0,0,0,.789.625,2.386,2.386,0,0,0,1.059.227,2.517,2.517,0,0,0,1.3-.312,3.211,3.211,0,0,0,.93-.836l.875.7a4.044,4.044,0,0,1-.7.789,3.327,3.327,0,0,1-1.035.609A4.055,4.055,0,0,1-.438.156ZM4.571-12H6.024V-1.641L5.9,0H4.571Zm7.164,7.7v.164a6.342,6.342,0,0,1-.219,1.707,4.2,4.2,0,0,1-.641,1.363,2.985,2.985,0,0,1-1.031.9,2.961,2.961,0,0,1-1.4.32,3.356,3.356,0,0,1-1.41-.277,2.734,2.734,0,0,1-1.02-.8,4.1,4.1,0,0,1-.66-1.266,7.805,7.805,0,0,1-.34-1.672v-.719a7.815,7.815,0,0,1,.34-1.68,4.15,4.15,0,0,1,.66-1.27,2.726,2.726,0,0,1,1.016-.8,3.309,3.309,0,0,1,1.4-.277A3.12,3.12,0,0,1,9.845-8.3a2.848,2.848,0,0,1,1.035.879,4.149,4.149,0,0,1,.637,1.363A6.619,6.619,0,0,1,11.735-4.3Zm-1.453.164V-4.3a5.8,5.8,0,0,0-.117-1.191,3.123,3.123,0,0,0-.375-.984,1.909,1.909,0,0,0-.68-.672,2.032,2.032,0,0,0-1.039-.246,2.229,2.229,0,0,0-.949.188,2.075,2.075,0,0,0-.684.5,2.7,2.7,0,0,0-.457.719,4.062,4.062,0,0,0-.262.832v1.883a3.88,3.88,0,0,0,.41,1.051,2.394,2.394,0,0,0,.766.824,2.1,2.1,0,0,0,1.191.32,2,2,0,0,0,1-.238,1.9,1.9,0,0,0,.68-.66,3.152,3.152,0,0,0,.387-.977A5.393,5.393,0,0,0,10.282-4.133Zm8.306,2.688V-5.8a1.815,1.815,0,0,0-.2-.871,1.357,1.357,0,0,0-.6-.574,2.152,2.152,0,0,0-.984-.2,2.282,2.282,0,0,0-.957.188,1.635,1.635,0,0,0-.641.492,1.067,1.067,0,0,0-.23.656H13.533a1.912,1.912,0,0,1,.234-.9,2.649,2.649,0,0,1,.676-.809,3.405,3.405,0,0,1,1.063-.578,4.223,4.223,0,0,1,1.387-.215,4,4,0,0,1,1.629.313,2.469,2.469,0,0,1,1.109.941,2.867,2.867,0,0,1,.4,1.574v3.938a5.852,5.852,0,0,0,.074.9,3.394,3.394,0,0,0,.223.82V0H18.822a2.7,2.7,0,0,1-.172-.668A5.278,5.278,0,0,1,18.588-1.445Zm.25-3.68.016,1.016H17.392a5.606,5.606,0,0,0-1.1.1,2.582,2.582,0,0,0-.813.293,1.385,1.385,0,0,0-.5.488,1.326,1.326,0,0,0-.172.684,1.488,1.488,0,0,0,.18.727,1.278,1.278,0,0,0,.543.52,1.9,1.9,0,0,0,.895.191A2.379,2.379,0,0,0,17.6-1.391a2.481,2.481,0,0,0,.809-.687,1.493,1.493,0,0,0,.324-.789l.617.7a2.1,2.1,0,0,1-.3.727,3.447,3.447,0,0,1-.645.762,3.455,3.455,0,0,1-.953.6,3.089,3.089,0,0,1-1.238.238,3.21,3.21,0,0,1-1.5-.336,2.531,2.531,0,0,1-1-.9,2.339,2.339,0,0,1-.355-1.27,2.6,2.6,0,0,1,.266-1.2,2.347,2.347,0,0,1,.766-.867,3.688,3.688,0,0,1,1.2-.527,6.347,6.347,0,0,1,1.57-.18Zm8.431,2.883a1.268,1.268,0,0,0-.137-.582,1.25,1.25,0,0,0-.555-.492A4.726,4.726,0,0,0,25.323-3.7a9.72,9.72,0,0,1-1.27-.352,3.773,3.773,0,0,1-.961-.492,2.049,2.049,0,0,1-.605-.68,1.9,1.9,0,0,1-.211-.914,2.086,2.086,0,0,1,.223-.945,2.463,2.463,0,0,1,.633-.789,3.03,3.03,0,0,1,.988-.539,4.011,4.011,0,0,1,1.289-.2,3.844,3.844,0,0,1,1.734.359,2.708,2.708,0,0,1,1.1.957,2.4,2.4,0,0,1,.383,1.324H27.183a1.276,1.276,0,0,0-.207-.684,1.607,1.607,0,0,0-.6-.551,1.965,1.965,0,0,0-.965-.219,2.2,2.2,0,0,0-.973.184,1.247,1.247,0,0,0-.539.465,1.14,1.14,0,0,0-.168.594,1.015,1.015,0,0,0,.082.418.855.855,0,0,0,.293.336,2.34,2.34,0,0,0,.594.285,9.163,9.163,0,0,0,.977.266,7.924,7.924,0,0,1,1.711.563,2.518,2.518,0,0,1,1,.8,1.989,1.989,0,0,1,.328,1.156,2.239,2.239,0,0,1-.23,1.016,2.272,2.272,0,0,1-.664.793,3.246,3.246,0,0,1-1.031.516,4.554,4.554,0,0,1-1.34.184,4.092,4.092,0,0,1-1.891-.4,2.924,2.924,0,0,1-1.172-1.031,2.467,2.467,0,0,1-.4-1.336H23.44a1.478,1.478,0,0,0,.344.941,1.708,1.708,0,0,0,.766.492,2.944,2.944,0,0,0,.9.145,2.767,2.767,0,0,0,1-.156,1.383,1.383,0,0,0,.613-.43A1,1,0,0,0,27.268-2.242Z" transform="translate(798.001 1107.713)" fill="#12263f"/>
          <path id="Trazado_1291933" data-name="Trazado 1291933" d="M9.5,0,19,16H0Z" transform="translate(806.711 847.459) rotate(180)" fill="#636363"/>
          <path id="Trazado_1285040" data-name="Trazado 1285040" d="M150.5-9046.666v66.332" transform="translate(646.711 9939.379)" fill="none" stroke="#707070" stroke-width="3"/>
          <path id="Trazado_1291369" data-name="Trazado 1291369" d="M150.5-9023.946v43.612" transform="translate(646.711 10048.633)" fill="none" stroke="#707070" stroke-width="3"/>
          <path id="Trazado_1291370" data-name="Trazado 1291370" d="M150.5-9023.946v43.612" transform="translate(517.211 10048.633)" fill="none" stroke="#707070" stroke-width="3"/>
          <path id="Trazado_1291371" data-name="Trazado 1291371" d="M150.5-9023.946v43.612" transform="translate(776.211 10048.633)" fill="none" stroke="#707070" stroke-width="3"/>
          <path id="Trazado_1288925" data-name="Trazado 1288925" d="M150.5-9028v21.627" transform="translate(646.711 9838.502)" fill="none" stroke="#707070" stroke-width="3"/>
          <path id="Trazado_1285042" data-name="Trazado 1285042" d="M26.667-8912.667v-24.666h260v24.666" transform="translate(641.334 9860.046)" fill="none" stroke="#707070" stroke-width="3"/>
          <path id="Trazado_1291934" data-name="Trazado 1291934" d="M9.5,0,19,16H0Z" transform="translate(677.5 959.046) rotate(180)" fill="#636363"/>
          <path id="Trazado_1291935" data-name="Trazado 1291935" d="M9.5,0,19,16H0Z" transform="translate(937.5 959.046) rotate(180)" fill="#636363"/>
          <path id="Trazado_1291936" data-name="Trazado 1291936" d="M9.5,0,19,16H0Z" transform="translate(806.711 959.046) rotate(180)" fill="#636363"/>
          <path id="Trazado_1291937" data-name="Trazado 1291937" d="M9.5,0,19,16H0Z" transform="translate(806.711 1068.3) rotate(180)" fill="#636363"/>
          <path id="Trazado_1291938" data-name="Trazado 1291938" d="M9.5,0,19,16H0Z" transform="translate(677.211 1068.3) rotate(180)" fill="#636363"/>
          <path id="Trazado_1291939" data-name="Trazado 1291939" d="M9.5,0,19,16H0Z" transform="translate(936.211 1068.3) rotate(180)" fill="#636363"/>
          <path id="Trazado_1291940" data-name="Trazado 1291940" d="M17,0h87a17,17,0,0,1,17,17V49.188a17,17,0,0,1-17,17H17a17,17,0,0,1-17-17V17A17,17,0,0,1,17,0Z" transform="translate(867.5 957.713)" fill="#ffde92"/>
          <path id="Trazado_1291941" data-name="Trazado 1291941" d="M17,0h87a17,17,0,0,1,17,17V49.188a17,17,0,0,1-17,17H17a17,17,0,0,1-17-17V17A17,17,0,0,1,17,0Z" transform="translate(867.5 1068.713)" fill="#4dd0e1"/>
          <path id="Trazado_1291942" data-name="Trazado 1291942" d="M-15.537-10.367-19.3,0h-1.539l4.336-11.375h.992ZM-12.381,0l-3.773-10.367-.023-1.008h.992L-10.834,0Zm-.2-4.211v1.234h-6.391V-4.211Zm8.563-4.242H-2.7V-.18a3.769,3.769,0,0,1-.453,1.906,2.981,2.981,0,0,1-1.262,1.2,4.064,4.064,0,0,1-1.863.41A4.637,4.637,0,0,1-7.306,3.2a4.258,4.258,0,0,1-1.156-.461,2.916,2.916,0,0,1-.949-.871l.758-.859A3.045,3.045,0,0,0-7.54,1.9a2.9,2.9,0,0,0,1.152.25A2.56,2.56,0,0,0-5.2,1.891a1.827,1.827,0,0,0,.777-.762A2.538,2.538,0,0,0-4.145-.109V-6.594Zm-5.82,4.32V-4.3A6.3,6.3,0,0,1-9.6-6.059a4.134,4.134,0,0,1,.664-1.363A2.985,2.985,0,0,1-7.888-8.3,3.067,3.067,0,0,1-6.5-8.609,3.283,3.283,0,0,1-5.1-8.332a2.768,2.768,0,0,1,1.016.8,4.04,4.04,0,0,1,.66,1.27,7.985,7.985,0,0,1,.336,1.68v.719a7.512,7.512,0,0,1-.332,1.672A4.049,4.049,0,0,1-4.087-.922a2.776,2.776,0,0,1-1.02.8A3.329,3.329,0,0,1-6.513.156a2.916,2.916,0,0,1-1.371-.32,3.119,3.119,0,0,1-1.051-.9A4.191,4.191,0,0,1-9.6-2.426,6.039,6.039,0,0,1-9.833-4.133ZM-8.388-4.3v.164a5.236,5.236,0,0,0,.129,1.188,3.1,3.1,0,0,0,.4.977,1.95,1.95,0,0,0,.691.66,2.017,2.017,0,0,0,1.008.238,2.139,2.139,0,0,0,1.188-.3,2.238,2.238,0,0,0,.746-.8,4.754,4.754,0,0,0,.434-1.086V-5.148a4.062,4.062,0,0,0-.262-.832A2.756,2.756,0,0,0-4.509-6.7a2.023,2.023,0,0,0-.684-.5,2.255,2.255,0,0,0-.953-.187,2,2,0,0,0-1.02.246,2,2,0,0,0-.7.672,3.149,3.149,0,0,0-.4.984A5.288,5.288,0,0,0-8.388-4.3ZM3.043.156a4.082,4.082,0,0,1-1.6-.3A3.535,3.535,0,0,1,.219-.992a3.756,3.756,0,0,1-.785-1.3A4.756,4.756,0,0,1-.84-3.93v-.328a5.192,5.192,0,0,1,.3-1.84A4.115,4.115,0,0,1,.293-7.469,3.547,3.547,0,0,1,1.48-8.32a3.411,3.411,0,0,1,1.375-.289A3.63,3.63,0,0,1,4.422-8.3,2.871,2.871,0,0,1,5.5-7.426a3.786,3.786,0,0,1,.625,1.313,6.308,6.308,0,0,1,.2,1.645v.648H.02V-5H4.887v-.109A3.679,3.679,0,0,0,4.656-6.2a2,2,0,0,0-.629-.875,1.825,1.825,0,0,0-1.172-.344,2,2,0,0,0-.906.207,1.966,1.966,0,0,0-.711.613,3.068,3.068,0,0,0-.461.992A5.029,5.029,0,0,0,.613-4.258v.328A3.7,3.7,0,0,0,.781-2.8a2.793,2.793,0,0,0,.492.926,2.309,2.309,0,0,0,.789.625,2.386,2.386,0,0,0,1.059.227,2.517,2.517,0,0,0,1.3-.312,3.211,3.211,0,0,0,.93-.836l.875.7a4.044,4.044,0,0,1-.7.789,3.327,3.327,0,0,1-1.035.609A4.055,4.055,0,0,1,3.043.156ZM9.5-6.648V0H8.06V-8.453H9.427Zm-.344,2.1-.6-.023a5.122,5.122,0,0,1,.258-1.605,4,4,0,0,1,.7-1.285A3.164,3.164,0,0,1,10.6-8.309,3.19,3.19,0,0,1,12-8.609a3.521,3.521,0,0,1,1.125.168,2.1,2.1,0,0,1,.855.535,2.4,2.4,0,0,1,.543.949,4.666,4.666,0,0,1,.188,1.418V0H13.255V-5.555a2.461,2.461,0,0,0-.2-1.066,1.223,1.223,0,0,0-.57-.586,2.085,2.085,0,0,0-.922-.184,2.115,2.115,0,0,0-.98.227,2.3,2.3,0,0,0-.758.625,3.036,3.036,0,0,0-.492.91A3.307,3.307,0,0,0,9.161-4.547ZM20.475-8.453v1.109H15.9V-8.453Zm-3.023-2.055H18.9v8.414a1.269,1.269,0,0,0,.133.648.635.635,0,0,0,.344.289,1.424,1.424,0,0,0,.453.07,2.183,2.183,0,0,0,.379-.035q.2-.035.3-.059L20.514,0a3.772,3.772,0,0,1-.449.105A3.771,3.771,0,0,1,19.4.156a2.252,2.252,0,0,1-.977-.211,1.548,1.548,0,0,1-.707-.707,2.889,2.889,0,0,1-.262-1.34Z" transform="translate(930.5 996.213)" fill="#12263f"/>
          <path id="Trazado_1291943" data-name="Trazado 1291943" d="M-35.172,0h-2.375l.016-1.227h2.359a3.744,3.744,0,0,0,2.031-.512,3.169,3.169,0,0,0,1.223-1.437,5.314,5.314,0,0,0,.41-2.168v-.7a5.911,5.911,0,0,0-.234-1.738,3.552,3.552,0,0,0-.687-1.289,2.929,2.929,0,0,0-1.105-.8,3.842,3.842,0,0,0-1.5-.273h-2.562v-1.234h2.563A5.414,5.414,0,0,1-32.993-11a4.488,4.488,0,0,1,1.59,1.07,4.765,4.765,0,0,1,1.027,1.688,6.471,6.471,0,0,1,.359,2.223v.68a6.471,6.471,0,0,1-.359,2.223A4.668,4.668,0,0,1-31.41-1.437,4.538,4.538,0,0,1-33.035-.371,5.829,5.829,0,0,1-35.172,0Zm-1.57-11.375V0H-38.25V-11.375ZM-24.421.156a4.082,4.082,0,0,1-1.6-.3,3.535,3.535,0,0,1-1.227-.848,3.756,3.756,0,0,1-.785-1.3A4.756,4.756,0,0,1-28.3-3.93v-.328A5.192,5.192,0,0,1-28-6.1a4.115,4.115,0,0,1,.828-1.371,3.547,3.547,0,0,1,1.188-.852,3.411,3.411,0,0,1,1.375-.289,3.63,3.63,0,0,1,1.566.313,2.871,2.871,0,0,1,1.082.871,3.786,3.786,0,0,1,.625,1.313,6.308,6.308,0,0,1,.2,1.645v.648h-6.312V-5h4.867v-.109a3.679,3.679,0,0,0-.23-1.094,2,2,0,0,0-.629-.875,1.825,1.825,0,0,0-1.172-.344,2,2,0,0,0-.906.207,1.966,1.966,0,0,0-.711.613,3.068,3.068,0,0,0-.461.992,5.029,5.029,0,0,0-.164,1.352v.328A3.7,3.7,0,0,0-26.683-2.8a2.793,2.793,0,0,0,.492.926,2.309,2.309,0,0,0,.789.625,2.386,2.386,0,0,0,1.059.227,2.517,2.517,0,0,0,1.3-.312,3.211,3.211,0,0,0,.93-.836l.875.7a4.044,4.044,0,0,1-.7.789,3.327,3.327,0,0,1-1.035.609A4.055,4.055,0,0,1-24.421.156Zm9.938-2.4a1.268,1.268,0,0,0-.137-.582,1.25,1.25,0,0,0-.555-.492A4.726,4.726,0,0,0-16.428-3.7a9.72,9.72,0,0,1-1.27-.352,3.773,3.773,0,0,1-.961-.492,2.049,2.049,0,0,1-.605-.68,1.9,1.9,0,0,1-.211-.914,2.086,2.086,0,0,1,.223-.945,2.463,2.463,0,0,1,.633-.789,3.03,3.03,0,0,1,.988-.539,4.011,4.011,0,0,1,1.289-.2,3.844,3.844,0,0,1,1.734.359,2.708,2.708,0,0,1,1.1.957,2.4,2.4,0,0,1,.383,1.324h-1.445a1.276,1.276,0,0,0-.207-.684,1.607,1.607,0,0,0-.6-.551,1.965,1.965,0,0,0-.965-.219,2.2,2.2,0,0,0-.973.184,1.247,1.247,0,0,0-.539.465,1.14,1.14,0,0,0-.168.594,1.015,1.015,0,0,0,.082.418.855.855,0,0,0,.293.336,2.34,2.34,0,0,0,.594.285,9.163,9.163,0,0,0,.977.266,7.924,7.924,0,0,1,1.711.563,2.518,2.518,0,0,1,1,.8,1.989,1.989,0,0,1,.328,1.156,2.239,2.239,0,0,1-.23,1.016,2.272,2.272,0,0,1-.664.793,3.246,3.246,0,0,1-1.031.516A4.554,4.554,0,0,1-16.3.156a4.092,4.092,0,0,1-1.891-.4,2.924,2.924,0,0,1-1.172-1.031,2.467,2.467,0,0,1-.4-1.336h1.453a1.478,1.478,0,0,0,.344.941,1.708,1.708,0,0,0,.766.492,2.944,2.944,0,0,0,.9.145,2.767,2.767,0,0,0,1-.156,1.383,1.383,0,0,0,.613-.43A1,1,0,0,0-14.483-2.242Zm4.821-4.586V3.25h-1.453v-11.7h1.328Zm5.7,2.531v.164a6.342,6.342,0,0,1-.219,1.707,4.251,4.251,0,0,1-.637,1.363,2.949,2.949,0,0,1-1.027.9,2.961,2.961,0,0,1-1.4.32A3.569,3.569,0,0,1-8.669-.109,2.8,2.8,0,0,1-9.716-.883,3.891,3.891,0,0,1-10.4-2.1a6.912,6.912,0,0,1-.348-1.6v-.875a7.35,7.35,0,0,1,.352-1.68,4.187,4.187,0,0,1,.684-1.27,2.811,2.811,0,0,1,1.035-.8,3.363,3.363,0,0,1,1.406-.277A3.12,3.12,0,0,1-5.857-8.3a2.882,2.882,0,0,1,1.039.879,4.046,4.046,0,0,1,.637,1.363A6.733,6.733,0,0,1-3.966-4.3Zm-1.453.164V-4.3a5.139,5.139,0,0,0-.133-1.191,3.1,3.1,0,0,0-.41-.984,2.052,2.052,0,0,0-.707-.672,2.026,2.026,0,0,0-1.023-.246,2.229,2.229,0,0,0-.949.188,2.075,2.075,0,0,0-.684.5,2.7,2.7,0,0,0-.457.719,4.062,4.062,0,0,0-.262.832v2.023A4.438,4.438,0,0,0-9.607-2.1a2.222,2.222,0,0,0,.75.773,2.189,2.189,0,0,0,1.18.293,1.988,1.988,0,0,0,1.012-.246,2.051,2.051,0,0,0,.7-.676,3.15,3.15,0,0,0,.41-.988A5.139,5.139,0,0,0-5.419-4.133ZM-.512-12V0H-1.965V-12ZM3.418-8.453V0H1.965V-8.453ZM1.856-10.7a.863.863,0,0,1,.215-.594.807.807,0,0,1,.637-.242.822.822,0,0,1,.637.242.845.845,0,0,1,.223.594.811.811,0,0,1-.223.574.829.829,0,0,1-.637.238.814.814,0,0,1-.637-.238A.828.828,0,0,1,1.856-10.7ZM9.287.156a4.082,4.082,0,0,1-1.6-.3A3.535,3.535,0,0,1,6.462-.992a3.756,3.756,0,0,1-.785-1.3A4.756,4.756,0,0,1,5.4-3.93v-.328a5.192,5.192,0,0,1,.3-1.84,4.115,4.115,0,0,1,.828-1.371A3.547,3.547,0,0,1,7.724-8.32,3.411,3.411,0,0,1,9.1-8.609a3.63,3.63,0,0,1,1.566.313,2.871,2.871,0,0,1,1.082.871,3.786,3.786,0,0,1,.625,1.313,6.308,6.308,0,0,1,.2,1.645v.648H6.263V-5H11.13v-.109A3.679,3.679,0,0,0,10.9-6.2a2,2,0,0,0-.629-.875A1.825,1.825,0,0,0,9.1-7.422a2,2,0,0,0-.906.207,1.966,1.966,0,0,0-.711.613,3.068,3.068,0,0,0-.461.992,5.029,5.029,0,0,0-.164,1.352v.328A3.7,3.7,0,0,0,7.025-2.8a2.793,2.793,0,0,0,.492.926,2.309,2.309,0,0,0,.789.625,2.386,2.386,0,0,0,1.059.227,2.517,2.517,0,0,0,1.3-.312,3.211,3.211,0,0,0,.93-.836l.875.7a4.044,4.044,0,0,1-.7.789,3.327,3.327,0,0,1-1.035.609A4.055,4.055,0,0,1,9.287.156ZM19.78-8.453h1.313V-.18a3.769,3.769,0,0,1-.453,1.906,2.981,2.981,0,0,1-1.262,1.2,4.064,4.064,0,0,1-1.863.41A4.637,4.637,0,0,1,16.487,3.2a4.258,4.258,0,0,1-1.156-.461,2.916,2.916,0,0,1-.949-.871l.758-.859a3.045,3.045,0,0,0,1.113.891,2.9,2.9,0,0,0,1.152.25,2.56,2.56,0,0,0,1.188-.258,1.827,1.827,0,0,0,.777-.762,2.538,2.538,0,0,0,.277-1.238V-6.594Zm-5.82,4.32V-4.3a6.3,6.3,0,0,1,.23-1.762,4.134,4.134,0,0,1,.664-1.363A2.985,2.985,0,0,1,15.9-8.3,3.067,3.067,0,0,1,17.3-8.609a3.283,3.283,0,0,1,1.395.277,2.768,2.768,0,0,1,1.016.8,4.04,4.04,0,0,1,.66,1.27,7.985,7.985,0,0,1,.336,1.68v.719a7.512,7.512,0,0,1-.332,1.672,4.049,4.049,0,0,1-.664,1.266,2.776,2.776,0,0,1-1.02.8A3.329,3.329,0,0,1,17.28.156a2.916,2.916,0,0,1-1.371-.32,3.119,3.119,0,0,1-1.051-.9,4.191,4.191,0,0,1-.668-1.363A6.039,6.039,0,0,1,13.959-4.133ZM15.4-4.3v.164a5.236,5.236,0,0,0,.129,1.188,3.1,3.1,0,0,0,.4.977,1.95,1.95,0,0,0,.691.66,2.017,2.017,0,0,0,1.008.238,2.139,2.139,0,0,0,1.188-.3,2.238,2.238,0,0,0,.746-.8A4.754,4.754,0,0,0,20-3.266V-5.148a4.062,4.062,0,0,0-.262-.832,2.756,2.756,0,0,0-.453-.719,2.023,2.023,0,0,0-.684-.5,2.255,2.255,0,0,0-.953-.187,2,2,0,0,0-1.02.246,2,2,0,0,0-.7.672,3.149,3.149,0,0,0-.4.984A5.288,5.288,0,0,0,15.4-4.3ZM28.5-1.953v-6.5h1.453V0H28.57Zm.273-1.781.6-.016A6.52,6.52,0,0,1,29.2-2.191a3.4,3.4,0,0,1-.566,1.238,2.628,2.628,0,0,1-1.023.816A3.647,3.647,0,0,1,26.07.156a3.388,3.388,0,0,1-1.129-.18,2.259,2.259,0,0,1-.879-.555,2.487,2.487,0,0,1-.566-.977A4.623,4.623,0,0,1,23.3-3V-8.453h1.445v5.469a2.911,2.911,0,0,0,.129.941,1.467,1.467,0,0,0,.352.586,1.245,1.245,0,0,0,.5.3,1.929,1.929,0,0,0,.574.086,2.625,2.625,0,0,0,1.461-.355,2,2,0,0,0,.777-.961A3.652,3.652,0,0,0,28.773-3.734ZM35.7.156a4.082,4.082,0,0,1-1.6-.3,3.535,3.535,0,0,1-1.227-.848,3.756,3.756,0,0,1-.785-1.3,4.756,4.756,0,0,1-.273-1.641v-.328a5.192,5.192,0,0,1,.3-1.84,4.115,4.115,0,0,1,.828-1.371,3.547,3.547,0,0,1,1.188-.852,3.411,3.411,0,0,1,1.375-.289,3.63,3.63,0,0,1,1.566.313,2.871,2.871,0,0,1,1.082.871,3.786,3.786,0,0,1,.625,1.313,6.308,6.308,0,0,1,.2,1.645v.648H32.672V-5h4.867v-.109a3.679,3.679,0,0,0-.23-1.094,2,2,0,0,0-.629-.875,1.825,1.825,0,0,0-1.172-.344,2,2,0,0,0-.906.207,1.966,1.966,0,0,0-.711.613,3.068,3.068,0,0,0-.461.992,5.029,5.029,0,0,0-.164,1.352v.328A3.7,3.7,0,0,0,33.434-2.8a2.793,2.793,0,0,0,.492.926,2.309,2.309,0,0,0,.789.625,2.386,2.386,0,0,0,1.059.227,2.517,2.517,0,0,0,1.3-.312A3.211,3.211,0,0,0,38-2.172l.875.7a4.044,4.044,0,0,1-.7.789,3.327,3.327,0,0,1-1.035.609A4.055,4.055,0,0,1,35.7.156Z" transform="translate(930.5 1107.213)" fill="#12263f"/>
        </g>
      </g>
    </g>
  </g>
</svg>
