<svg xmlns="http://www.w3.org/2000/svg" width="82.944" height="82.944" viewBox="0 0 82.944 82.944">
  <g id="Grupo_1217459" data-name="Grupo 1217459" transform="translate(-699.465 -4675.822)">
    <g id="Grupo_1216510" data-name="Grupo 1216510" transform="translate(699.465 4675.823)">
      <g id="Grupo_1185067" data-name="Grupo 1185067" transform="translate(14.811 7.899)">
        <path id="Trazado_997620" data-name="Trazado 997620" d="M132.84,646.343a15.282,15.282,0,1,0-14.152-.01" transform="translate(-99.31 -604.964)" fill="none" stroke="#000" stroke-miterlimit="10" stroke-width="2"/>
        <rect id="Rectángulo_454823" data-name="Rectángulo 454823" width="14.153" height="4.234" transform="translate(19.378 41.366)" fill="none" stroke="#000" stroke-miterlimit="10" stroke-width="2"/>
        <rect id="Rectángulo_454824" data-name="Rectángulo 454824" width="14.153" height="4.234" transform="translate(19.378 45.601)" fill="none" stroke="#000" stroke-miterlimit="10" stroke-width="2"/>
        <path id="Trazado_997621" data-name="Trazado 997621" d="M135.363,688.574h-6.2a3.974,3.974,0,0,1-3.974-3.974v-.259h14.153v.259A3.974,3.974,0,0,1,135.363,688.574Z" transform="translate(-105.805 -634.505)" fill="none" stroke="#000" stroke-miterlimit="10" stroke-width="2"/>
        <line id="Línea_3231" data-name="Línea 3231" y1="7.483" transform="translate(26.46 0)" fill="none" stroke="#000" stroke-miterlimit="10" stroke-width="2"/>
        <line id="Línea_3232" data-name="Línea 3232" x1="4.398" y1="6.053" transform="translate(10.108 5.319)" fill="none" stroke="#000" stroke-miterlimit="10" stroke-width="2"/>
        <line id="Línea_3233" data-name="Línea 3233" x1="7.11" y1="2.307" transform="translate(0 19.232)" fill="none" stroke="#000" stroke-miterlimit="10" stroke-width="2"/>
        <line id="Línea_3234" data-name="Línea 3234" x1="7.11" y2="2.312" transform="translate(0 34.116)" fill="none" stroke="#000" stroke-miterlimit="10" stroke-width="2"/>
        <line id="Línea_3235" data-name="Línea 3235" x1="7.11" y1="2.312" transform="translate(45.815 34.116)" fill="none" stroke="#000" stroke-miterlimit="10" stroke-width="2"/>
        <line id="Línea_3236" data-name="Línea 3236" x1="7.11" y2="2.307" transform="translate(45.815 19.232)" fill="none" stroke="#000" stroke-miterlimit="10" stroke-width="2"/>
        <line id="Línea_3237" data-name="Línea 3237" x1="4.398" y2="6.048" transform="translate(38.421 5.319)" fill="none" stroke="#000" stroke-miterlimit="10" stroke-width="2"/>
        <path id="Trazado_997622" data-name="Trazado 997622" d="M119,638.1a10.513,10.513,0,0,1,4.428-8.583" transform="translate(-103.07 -610.27)" fill="none" stroke="#000" stroke-miterlimit="10" stroke-width="2"/>
        <line id="Línea_3238" data-name="Línea 3238" y2="8.526" transform="translate(26.46 32.84)" fill="none" stroke="#000" stroke-miterlimit="10" stroke-width="2"/>
        <path id="Trazado_997623" data-name="Trazado 997623" d="M133.157,647.74l2.635,3.426,2.96-3.426" transform="translate(-109.331 -618.326)" fill="none" stroke="#000" stroke-miterlimit="10" stroke-width="2"/>
        <path id="Trazado_997624" data-name="Trazado 997624" d="M132.431,691.931a3.031,3.031,0,0,0,6.063,0" transform="translate(-109.009 -637.861)" fill="none" stroke="#000" stroke-miterlimit="10" stroke-width="2"/>
      </g>
      <rect id="Rectángulo_459857" data-name="Rectángulo 459857" width="82.944" height="82.944" transform="translate(0 0)" fill="#fff"/>
    </g>
    <g id="Grupo_1216511" data-name="Grupo 1216511" transform="translate(714.275 4688.66)">
      <g id="Grupo_1185067-2" data-name="Grupo 1185067" transform="translate(0 0)">
        <path id="Trazado_997620-2" data-name="Trazado 997620" d="M132.84,646.343a15.282,15.282,0,1,0-14.152-.01" transform="translate(-99.31 -604.964)" fill="none" stroke="#000" stroke-miterlimit="10" stroke-width="2"/>
        <rect id="Rectángulo_454823-2" data-name="Rectángulo 454823" width="14.153" height="4.234" transform="translate(19.378 41.366)" fill="none" stroke="#000" stroke-miterlimit="10" stroke-width="2"/>
        <rect id="Rectángulo_454824-2" data-name="Rectángulo 454824" width="14.153" height="4.234" transform="translate(19.378 45.601)" fill="none" stroke="#000" stroke-miterlimit="10" stroke-width="2"/>
        <path id="Trazado_997621-2" data-name="Trazado 997621" d="M135.363,688.574h-6.2a3.974,3.974,0,0,1-3.974-3.974v-.259h14.153v.259A3.974,3.974,0,0,1,135.363,688.574Z" transform="translate(-105.805 -634.505)" fill="none" stroke="#000" stroke-miterlimit="10" stroke-width="2"/>
        <line id="Línea_3231-2" data-name="Línea 3231" y1="7.483" transform="translate(26.46 0)" fill="none" stroke="#000" stroke-miterlimit="10" stroke-width="2"/>
        <line id="Línea_3232-2" data-name="Línea 3232" x1="4.398" y1="6.053" transform="translate(10.108 5.319)" fill="none" stroke="#000" stroke-miterlimit="10" stroke-width="2"/>
        <line id="Línea_3233-2" data-name="Línea 3233" x1="7.11" y1="2.307" transform="translate(0 19.232)" fill="none" stroke="#000" stroke-miterlimit="10" stroke-width="2"/>
        <line id="Línea_3234-2" data-name="Línea 3234" x1="7.11" y2="2.312" transform="translate(0 34.116)" fill="none" stroke="#000" stroke-miterlimit="10" stroke-width="2"/>
        <line id="Línea_3235-2" data-name="Línea 3235" x1="7.11" y1="2.312" transform="translate(45.815 34.116)" fill="none" stroke="#000" stroke-miterlimit="10" stroke-width="2"/>
        <line id="Línea_3236-2" data-name="Línea 3236" x1="7.11" y2="2.307" transform="translate(45.815 19.232)" fill="none" stroke="#000" stroke-miterlimit="10" stroke-width="2"/>
        <line id="Línea_3237-2" data-name="Línea 3237" x1="4.398" y2="6.048" transform="translate(38.421 5.319)" fill="none" stroke="#000" stroke-miterlimit="10" stroke-width="2"/>
        <path id="Trazado_997622-2" data-name="Trazado 997622" d="M119,638.1a10.513,10.513,0,0,1,4.428-8.583" transform="translate(-103.07 -610.27)" fill="none" stroke="#000" stroke-miterlimit="10" stroke-width="2"/>
        <line id="Línea_3238-2" data-name="Línea 3238" y2="8.526" transform="translate(26.46 32.84)" fill="none" stroke="#000" stroke-miterlimit="10" stroke-width="2"/>
        <path id="Trazado_997623-2" data-name="Trazado 997623" d="M133.157,647.74l2.635,3.426,2.96-3.426" transform="translate(-109.331 -618.326)" fill="none" stroke="#000" stroke-miterlimit="10" stroke-width="2"/>
        <path id="Trazado_997624-2" data-name="Trazado 997624" d="M132.431,691.931a3.031,3.031,0,0,0,6.063,0" transform="translate(-109.009 -637.861)" fill="none" stroke="#000" stroke-miterlimit="10" stroke-width="2"/>
      </g>
    </g>
  </g>
</svg>
